<?xml version="1.0" encoding="UTF-8" standalone="no"?><!DOCTYPE svg PUBLIC "-//W3C//DTD SVG 1.1//EN" "http://www.w3.org/Graphics/SVG/1.1/DTD/svg11.dtd"><svg width="100%" height="100%" viewBox="0 0 400 400" version="1.1" xmlns="http://www.w3.org/2000/svg" xmlns:xlink="http://www.w3.org/1999/xlink" xml:space="preserve" xmlns:serif="http://www.serif.com/" style="fill-rule:evenodd;clip-rule:evenodd;stroke-linejoin:round;stroke-miterlimit:2;"><rect id="アートボード1" x="0" y="0" width="400" height="400" style="fill:none;"/><path d="M400,100c-0,-55.192 -44.808,-100 -100,-100l-200,0c-55.192,0 -100,44.808 -100,100l-0,200c-0,55.192 44.808,100 100,100l200,0c55.192,0 100,-44.808 100,-100l-0,-200Z" style="fill:#01b901;"/><path d="M81.493,188.296l-0.003,-0.001c-1.264,-10.973 -1.822,-22.016 -1.67,-33.06l-56.4,-0.54c-0.61,6.43 -1.72,22.96 -0.37,48.1c6.45,22.89 6.59,45.89 5.22,66.89c-8.64,-20.19 -17.84,-38.75 -8.4,-66.07c-1.38,-25.31 -0.3,-42.14 0.32,-48.95l-6.76,-0.07l-0.79,-2.24c85.08,-49.32 130,-57.9 228.78,-70.01l0.7,2.44l-54.74,40c0,0 14.602,11.39 22.081,19.758c3.388,2.257 6.43,4.847 9.129,7.772c10.173,-12.793 28.713,-19.19 55.62,-19.19c24.6,0 44.113,5.417 58.54,16.25c16.4,12.127 24.603,30.003 24.61,53.63l0,114.65l-55.11,0l0,-108.26c0,-22.627 -9.333,-33.943 -28,-33.95c-18.667,-0.007 -28.02,11.31 -28.06,33.95l0,108.26l-55.15,0l0,-108.26c0,-16.108 -4.658,-26.484 -13.972,-31.127c-11.968,7.863 -25.397,13.092 -39.623,15.423c-1.326,4.428 -1.984,9.663 -1.975,15.704l0,108.26l-55.16,0l0,-114.65c0,-5.18 0.394,-10.084 1.183,-14.709Z" style="fill:#fff;fill-rule:nonzero;"/><clipPath id="_clip1"><path d="M81.493,188.296l-0.003,-0.001c-1.264,-10.973 -1.822,-22.016 -1.67,-33.06l-56.4,-0.54c-0.61,6.43 -1.72,22.96 -0.37,48.1c6.45,22.89 6.59,45.89 5.22,66.89c-8.64,-20.19 -17.84,-38.75 -8.4,-66.07c-1.38,-25.31 -0.3,-42.14 0.32,-48.95l-6.76,-0.07l-0.79,-2.24c85.08,-49.32 130,-57.9 228.78,-70.01l0.7,2.44l-54.74,40c0,0 14.602,11.39 22.081,19.758c3.388,2.257 6.43,4.847 9.129,7.772c10.173,-12.793 28.713,-19.19 55.62,-19.19c24.6,0 44.113,5.417 58.54,16.25c16.4,12.127 24.603,30.003 24.61,53.63l0,114.65l-55.11,0l0,-108.26c0,-22.627 -9.333,-33.943 -28,-33.95c-18.667,-0.007 -28.02,11.31 -28.06,33.95l0,108.26l-55.15,0l0,-108.26c0,-16.108 -4.658,-26.484 -13.972,-31.127c-11.968,7.863 -25.397,13.092 -39.623,15.423c-1.326,4.428 -1.984,9.663 -1.975,15.704l0,108.26l-55.16,0l0,-114.65c0,-5.18 0.394,-10.084 1.183,-14.709Z" clip-rule="nonzero"/></clipPath><g clip-path="url(#_clip1)"><g><path id="_3連歯車-小" serif:id="3連歯車-小" d="M100.737,320.306l8.693,-39.54c0.018,0 0.035,-0.001 0.053,-0.001c0.12,0 0.239,-0.004 0.358,-0.013c0.046,-0.003 0.092,-0.008 0.137,-0.013c0.094,-0.01 0.187,-0.022 0.279,-0.038c0.045,-0.007 0.089,-0.014 0.133,-0.022c0.125,-0.025 0.248,-0.053 0.369,-0.088c0.018,-0.005 0.036,-0.011 0.054,-0.016c0.115,-0.035 0.227,-0.073 0.339,-0.116c0.042,-0.016 0.083,-0.034 0.124,-0.051c0.085,-0.035 0.169,-0.074 0.251,-0.114c0.041,-0.02 0.081,-0.039 0.121,-0.06c0.107,-0.056 0.213,-0.116 0.316,-0.181c0.016,-0.01 0.032,-0.021 0.048,-0.031c0.102,-0.066 0.201,-0.137 0.298,-0.211c0.035,-0.027 0.069,-0.056 0.104,-0.084c0.071,-0.058 0.141,-0.118 0.209,-0.18c0.033,-0.031 0.066,-0.061 0.098,-0.092c0.086,-0.083 0.169,-0.169 0.248,-0.259c0.012,-0.014 0.025,-0.027 0.037,-0.042c0.082,-0.095 0.16,-0.196 0.235,-0.298c0.026,-0.037 0.05,-0.074 0.076,-0.111c0.052,-0.078 0.103,-0.157 0.151,-0.238c0.024,-0.039 0.048,-0.078 0.07,-0.119c0.058,-0.104 0.112,-0.211 0.162,-0.32c0.007,-0.016 0.015,-0.031 0.023,-0.047l39.539,8.694c-5.657,23.463 -28.853,38.298 -52.525,33.591m-35.396,-52.922l39.54,8.693c-0.001,0.045 0.003,0.089 0.004,0.133c0,0.074 0.001,0.147 0.005,0.221c0.004,0.059 0.011,0.119 0.017,0.178c0.007,0.072 0.014,0.145 0.025,0.216c0.009,0.059 0.02,0.118 0.031,0.176c0.014,0.071 0.027,0.141 0.043,0.21c0.014,0.059 0.031,0.116 0.047,0.175c0.019,0.067 0.037,0.134 0.059,0.201c0.019,0.058 0.041,0.115 0.063,0.172c0.024,0.064 0.048,0.128 0.074,0.191c0.025,0.058 0.052,0.114 0.079,0.17c0.028,0.061 0.056,0.121 0.088,0.18c0.029,0.057 0.062,0.111 0.094,0.166c0.033,0.057 0.065,0.114 0.1,0.168c0.035,0.056 0.073,0.109 0.111,0.162c0.036,0.053 0.072,0.105 0.111,0.156c0.041,0.053 0.084,0.104 0.127,0.155c0.04,0.048 0.079,0.096 0.121,0.142c0.046,0.051 0.094,0.099 0.142,0.148c0.043,0.043 0.086,0.087 0.13,0.129c0.051,0.048 0.105,0.093 0.158,0.138c0.046,0.039 0.091,0.078 0.139,0.116c0.056,0.044 0.114,0.085 0.173,0.127c0.048,0.034 0.096,0.07 0.146,0.102c0.061,0.04 0.123,0.077 0.186,0.114c0.051,0.03 0.102,0.061 0.155,0.089c0.065,0.035 0.131,0.067 0.198,0.098c0.039,0.019 0.078,0.041 0.119,0.059l-8.694,39.54c-23.463,-5.657 -38.298,-28.853 -33.591,-52.525m52.922,-35.396l-8.694,39.54c-0.017,-0.001 -0.034,0.001 -0.051,0.001c-0.121,-0.001 -0.24,0.004 -0.359,0.013c-0.046,0.003 -0.092,0.008 -0.138,0.013c-0.093,0.009 -0.186,0.022 -0.279,0.038c-0.044,0.007 -0.088,0.014 -0.132,0.022c-0.125,0.025 -0.248,0.053 -0.369,0.088c-0.019,0.005 -0.036,0.011 -0.054,0.016c-0.115,0.034 -0.228,0.073 -0.339,0.116c-0.042,0.016 -0.083,0.034 -0.124,0.051c-0.085,0.035 -0.169,0.073 -0.251,0.114c-0.041,0.02 -0.081,0.039 -0.121,0.06c-0.107,0.056 -0.213,0.116 -0.316,0.181c-0.016,0.01 -0.032,0.021 -0.048,0.031c-0.102,0.066 -0.201,0.137 -0.298,0.211c-0.035,0.027 -0.069,0.056 -0.104,0.084c-0.071,0.058 -0.141,0.118 -0.209,0.18c-0.033,0.031 -0.066,0.061 -0.099,0.092c-0.085,0.083 -0.168,0.169 -0.247,0.259c-0.012,0.014 -0.025,0.027 -0.037,0.042c-0.082,0.095 -0.16,0.195 -0.235,0.298c-0.026,0.036 -0.05,0.074 -0.076,0.111c-0.052,0.077 -0.103,0.156 -0.151,0.237c-0.024,0.04 -0.047,0.079 -0.07,0.12c-0.058,0.104 -0.112,0.21 -0.162,0.32c-0.007,0.016 -0.015,0.031 -0.022,0.046l-39.54,-8.693c5.656,-23.463 28.853,-38.298 52.525,-33.591m-11.019,43.663c0.274,-1.246 1.506,-2.034 2.752,-1.76c1.246,0.274 2.034,1.506 1.76,2.752c-0.274,1.246 -1.506,2.034 -2.752,1.76c-1.246,-0.274 -2.034,-1.506 -1.76,-2.752m46.415,9.259l-39.54,-8.694c0.001,-0.044 -0.003,-0.088 -0.004,-0.132c-0,-0.074 -0.001,-0.148 -0.005,-0.221c-0.004,-0.06 -0.011,-0.119 -0.017,-0.178c-0.007,-0.073 -0.014,-0.145 -0.025,-0.216c-0.008,-0.06 -0.02,-0.118 -0.031,-0.177c-0.014,-0.07 -0.027,-0.14 -0.043,-0.209c-0.014,-0.059 -0.031,-0.117 -0.047,-0.175c-0.019,-0.067 -0.038,-0.135 -0.059,-0.201c-0.019,-0.058 -0.041,-0.115 -0.063,-0.172c-0.024,-0.065 -0.048,-0.129 -0.074,-0.192c-0.025,-0.057 -0.052,-0.113 -0.079,-0.169c-0.028,-0.061 -0.056,-0.121 -0.087,-0.18c-0.03,-0.057 -0.063,-0.111 -0.095,-0.167c-0.033,-0.056 -0.065,-0.113 -0.1,-0.168c-0.035,-0.055 -0.073,-0.108 -0.111,-0.161c-0.036,-0.053 -0.072,-0.105 -0.111,-0.156c-0.041,-0.053 -0.084,-0.104 -0.127,-0.155c-0.04,-0.048 -0.079,-0.096 -0.121,-0.143c-0.046,-0.05 -0.094,-0.098 -0.142,-0.147c-0.043,-0.043 -0.086,-0.087 -0.131,-0.129c-0.05,-0.048 -0.104,-0.093 -0.157,-0.138c-0.046,-0.039 -0.092,-0.079 -0.139,-0.116c-0.056,-0.044 -0.114,-0.085 -0.173,-0.127c-0.048,-0.034 -0.096,-0.07 -0.146,-0.103c-0.061,-0.039 -0.123,-0.076 -0.186,-0.113c-0.051,-0.03 -0.102,-0.061 -0.155,-0.089c-0.065,-0.035 -0.131,-0.067 -0.197,-0.099c-0.041,-0.019 -0.079,-0.04 -0.12,-0.059l8.693,-39.539c23.464,5.657 38.299,28.853 33.592,52.525m4.57,2.425c0.034,-0.151 0.071,-0.3 0.105,-0.451c0.033,-0.152 0.062,-0.303 0.094,-0.454l-2.56,-0.616c0.096,-0.463 0.186,-0.927 0.269,-1.391l2.604,0.384c0.054,-0.303 0.105,-0.607 0.152,-0.91l-2.587,-0.484c0.073,-0.469 0.139,-0.938 0.198,-1.406l2.621,0.25c0.038,-0.304 0.072,-0.608 0.105,-0.911l-2.61,-0.352c0.05,-0.473 0.092,-0.945 0.127,-1.417l2.63,0.115c0.023,-0.304 0.041,-0.608 0.057,-0.911l-2.624,-0.217c0.025,-0.475 0.044,-0.95 0.054,-1.424l2.633,-0.02c0.007,-0.305 0.009,-0.608 0.01,-0.912l-2.632,-0.08c0,-0.477 -0.006,-0.952 -0.02,-1.426l2.629,-0.157c-0.009,-0.304 -0.023,-0.607 -0.038,-0.909l-2.633,0.056c-0.024,-0.476 -0.054,-0.951 -0.093,-1.423l2.618,-0.294c-0.025,-0.302 -0.055,-0.604 -0.086,-0.905l-2.626,0.192c-0.049,-0.474 -0.103,-0.946 -0.166,-1.416l2.598,-0.429c-0.04,-0.301 -0.086,-0.601 -0.133,-0.9l-2.612,0.328c-0.073,-0.471 -0.153,-0.939 -0.24,-1.406l2.571,-0.562c-0.056,-0.299 -0.115,-0.597 -0.177,-0.894l-2.591,0.463c-0.098,-0.465 -0.204,-0.928 -0.315,-1.39l2.539,-0.694c-0.072,-0.296 -0.144,-0.592 -0.221,-0.886l-2.566,0.597c-0.121,-0.459 -0.251,-0.916 -0.386,-1.37l2.5,-0.826c-0.088,-0.291 -0.176,-0.583 -0.268,-0.873l-2.531,0.728c-0.145,-0.452 -0.298,-0.901 -0.456,-1.348l2.454,-0.953c-0.102,-0.288 -0.206,-0.574 -0.314,-0.86l-2.489,0.858c-0.168,-0.444 -0.343,-0.885 -0.524,-1.322l2.403,-1.078c-0.117,-0.283 -0.237,-0.564 -0.359,-0.844l-2.442,0.985c-0.19,-0.435 -0.387,-0.866 -0.59,-1.294l2.344,-1.2c-0.131,-0.276 -0.266,-0.55 -0.403,-0.824l-2.388,1.108c-0.212,-0.424 -0.429,-0.845 -0.654,-1.262l2.28,-1.319c-0.145,-0.269 -0.296,-0.535 -0.446,-0.802l-2.328,1.228c-0.234,-0.412 -0.471,-0.821 -0.717,-1.226l2.208,-1.433c-0.159,-0.261 -0.322,-0.521 -0.486,-0.779l-2.262,1.346c-0.254,-0.4 -0.515,-0.795 -0.781,-1.187l2.132,-1.544c-0.172,-0.253 -0.345,-0.505 -0.522,-0.755l-2.191,1.46c-0.275,-0.386 -0.557,-0.766 -0.842,-1.144l2.05,-1.651c-0.185,-0.243 -0.371,-0.487 -0.561,-0.727l-2.113,1.571c-0.294,-0.372 -0.594,-0.738 -0.899,-1.101l1.963,-1.754c-0.198,-0.233 -0.396,-0.465 -0.597,-0.696l-2.03,1.677c-0.313,-0.356 -0.631,-0.707 -0.954,-1.054l1.87,-1.853c-0.208,-0.223 -0.419,-0.443 -0.632,-0.663l-1.941,1.779c-0.331,-0.339 -0.666,-0.675 -1.007,-1.005l1.773,-1.946c-0.219,-0.212 -0.441,-0.421 -0.665,-0.628l-1.847,1.876c-0.348,-0.322 -0.699,-0.641 -1.057,-0.953l1.671,-2.036c-0.23,-0.2 -0.463,-0.395 -0.696,-0.591l-1.748,1.969c-0.364,-0.304 -0.732,-0.605 -1.106,-0.899l1.564,-2.118c-0.24,-0.187 -0.482,-0.371 -0.725,-0.554l-1.643,2.056c-0.38,-0.285 -0.764,-0.564 -1.153,-0.838l1.452,-2.197c-0.249,-0.174 -0.499,-0.347 -0.751,-0.517l-1.534,2.139c-0.394,-0.265 -0.793,-0.523 -1.196,-0.777l1.335,-2.269c-0.257,-0.161 -0.514,-0.322 -0.774,-0.479l-1.422,2.218c-0.407,-0.245 -0.82,-0.481 -1.236,-0.714l1.217,-2.335c-0.265,-0.148 -0.53,-0.295 -0.799,-0.438l-1.305,2.288c-0.419,-0.223 -0.843,-0.439 -1.27,-0.649l1.093,-2.395c-0.272,-0.134 -0.545,-0.267 -0.82,-0.396l-1.185,2.352c-0.43,-0.2 -0.864,-0.394 -1.301,-0.582l0.967,-2.449c-0.279,-0.119 -0.559,-0.237 -0.841,-0.352l-1.062,2.41c-0.438,-0.178 -0.881,-0.349 -1.327,-0.515l0.839,-2.495c-0.285,-0.105 -0.573,-0.209 -0.861,-0.309l-0.936,2.461c-0.446,-0.154 -0.897,-0.303 -1.35,-0.445l0.71,-2.535c-0.292,-0.091 -0.585,-0.179 -0.88,-0.265l-0.808,2.506c-0.453,-0.132 -0.909,-0.257 -1.368,-0.375l0.58,-2.568c-0.298,-0.076 -0.597,-0.15 -0.898,-0.221l-0.68,2.543c-0.23,-0.054 -0.458,-0.11 -0.689,-0.161c-0.231,-0.05 -0.463,-0.096 -0.694,-0.143l0.45,-2.594c-0.303,-0.061 -0.606,-0.12 -0.909,-0.176l-0.55,2.575c-0.467,-0.085 -0.933,-0.163 -1.399,-0.234l0.317,-2.614c-0.304,-0.045 -0.607,-0.088 -0.91,-0.128l-0.418,2.599c-0.472,-0.061 -0.943,-0.115 -1.413,-0.162l0.183,-2.627c-0.304,-0.03 -0.608,-0.056 -0.912,-0.081l-0.284,2.618c-0.474,-0.037 -0.948,-0.068 -1.421,-0.09l0.048,-2.633c-0.304,-0.014 -0.608,-0.025 -0.912,-0.033l-0.149,2.629c-0.476,-0.013 -0.951,-0.019 -1.425,-0.018l-0.089,-2.632c-0.304,0.002 -0.607,0.008 -0.911,0.015l-0.012,2.633c-0.476,0.012 -0.951,0.03 -1.424,0.056l-0.226,-2.624c-0.303,0.018 -0.605,0.04 -0.908,0.062l0.125,2.631c-0.475,0.036 -0.949,0.078 -1.42,0.129l-0.362,-2.609c-0.302,0.033 -0.602,0.071 -0.903,0.11l0.261,2.62c-0.472,0.061 -0.943,0.127 -1.412,0.202l-0.496,-2.585c-0.3,0.049 -0.599,0.101 -0.897,0.155l0.396,2.603c-0.468,0.086 -0.934,0.178 -1.398,0.278l-0.629,-2.557c-0.298,0.065 -0.594,0.13 -0.89,0.2l0.53,2.578c-0.463,0.11 -0.922,0.229 -1.38,0.352l-0.761,-2.52c-0.294,0.079 -0.588,0.159 -0.88,0.244l0.663,2.549c-0.455,0.133 -0.909,0.275 -1.359,0.422l-0.89,-2.479c-0.289,0.095 -0.579,0.192 -0.867,0.292l0.793,2.511c-0.448,0.156 -0.893,0.32 -1.335,0.49l-1.016,-2.43c-0.285,0.11 -0.569,0.222 -0.852,0.337l0.921,2.467c-0.439,0.179 -0.875,0.364 -1.308,0.556l-1.139,-2.373c-0.279,0.124 -0.558,0.251 -0.834,0.38l1.046,2.416c-0.429,0.202 -0.855,0.408 -1.278,0.622l-1.259,-2.313c-0.273,0.139 -0.544,0.282 -0.814,0.425l1.168,2.359c-0.418,0.223 -0.833,0.45 -1.244,0.686l-1.377,-2.246c-0.265,0.153 -0.528,0.31 -0.79,0.467l1.287,2.296c-0.406,0.244 -0.809,0.493 -1.207,0.749l-1.489,-2.17c-0.257,0.165 -0.513,0.333 -0.768,0.504l1.404,2.226c-0.393,0.265 -0.781,0.537 -1.166,0.813l-1.597,-2.092c-0.249,0.179 -0.497,0.358 -0.742,0.542l1.516,2.153c-0.378,0.284 -0.752,0.575 -1.122,0.871l-1.703,-2.008c-0.239,0.191 -0.477,0.384 -0.712,0.579l1.624,2.073c-0.364,0.303 -0.722,0.612 -1.077,0.927l-1.804,-1.918c-0.229,0.203 -0.455,0.408 -0.68,0.615l1.728,1.986c-0.348,0.322 -0.691,0.649 -1.03,0.981l-1.9,-1.822c-0.217,0.213 -0.432,0.43 -0.646,0.648l1.829,1.895c-0.331,0.339 -0.659,0.683 -0.98,1.033l-1.992,-1.724c-0.205,0.225 -0.408,0.453 -0.61,0.682l1.924,1.797c-0.314,0.356 -0.623,0.716 -0.926,1.082l-2.079,-1.618c-0.193,0.235 -0.383,0.473 -0.572,0.711l2.014,1.696c-0.295,0.372 -0.586,0.748 -0.87,1.13l-2.158,-1.508c-0.18,0.244 -0.359,0.49 -0.536,0.737l2.099,1.59c-0.275,0.387 -0.544,0.779 -0.808,1.175l-2.233,-1.394c-0.168,0.253 -0.336,0.506 -0.499,0.762l2.179,1.479c-0.255,0.401 -0.502,0.807 -0.745,1.216l-2.303,-1.276c-0.154,0.261 -0.309,0.522 -0.459,0.787l2.254,1.364c-0.234,0.413 -0.46,0.831 -0.682,1.253l-2.366,-1.155c-0.141,0.268 -0.28,0.538 -0.416,0.809l2.32,1.246c-0.212,0.424 -0.416,0.854 -0.616,1.286l-2.423,-1.031c-0.126,0.276 -0.252,0.553 -0.374,0.831l2.382,1.124c-0.189,0.435 -0.371,0.873 -0.548,1.315l-2.473,-0.904c-0.113,0.282 -0.223,0.566 -0.331,0.852l2.436,0.998c-0.166,0.443 -0.326,0.89 -0.479,1.34l-2.516,-0.776c-0.099,0.29 -0.194,0.58 -0.288,0.872l2.485,0.872c-0.143,0.45 -0.28,0.903 -0.41,1.36l-2.553,-0.646c-0.083,0.295 -0.164,0.592 -0.243,0.889l2.525,0.745c-0.119,0.455 -0.232,0.913 -0.339,1.375l-2.582,-0.515c-0.034,0.151 -0.071,0.3 -0.105,0.451c-0.033,0.152 -0.062,0.303 -0.094,0.454l2.56,0.616c-0.097,0.463 -0.186,0.927 -0.269,1.391l-2.605,-0.384c-0.053,0.303 -0.104,0.607 -0.152,0.909l2.588,0.485c-0.073,0.469 -0.139,0.938 -0.198,1.406l-2.621,-0.25c-0.038,0.304 -0.072,0.608 -0.105,0.911l2.609,0.352c-0.049,0.473 -0.091,0.945 -0.126,1.417l-2.63,-0.116c-0.022,0.304 -0.041,0.608 -0.058,0.912l2.625,0.217c-0.025,0.475 -0.043,0.95 -0.054,1.423l-2.634,0.021c-0.006,0.304 -0.008,0.608 -0.009,0.912l2.632,0.08c-0,0.477 0.006,0.952 0.02,1.426l-2.629,0.157c0.009,0.304 0.023,0.606 0.038,0.909l2.633,-0.056c0.024,0.476 0.054,0.95 0.093,1.423l-2.618,0.294c0.025,0.302 0.055,0.604 0.086,0.905l2.626,-0.192c0.049,0.473 0.103,0.946 0.166,1.416l-2.598,0.429c0.04,0.301 0.087,0.601 0.133,0.9l2.612,-0.328c0.073,0.47 0.153,0.939 0.24,1.405l-2.572,0.563c0.057,0.299 0.116,0.597 0.178,0.894l2.591,-0.464c0.098,0.466 0.204,0.929 0.315,1.391l-2.539,0.694c0.072,0.296 0.144,0.591 0.221,0.886l2.566,-0.597c0.121,0.459 0.251,0.916 0.387,1.37l-2.501,0.825c0.088,0.292 0.176,0.584 0.268,0.874l2.531,-0.728c0.145,0.452 0.298,0.901 0.456,1.348l-2.454,0.953c0.102,0.287 0.206,0.574 0.314,0.859l2.489,-0.857c0.168,0.444 0.343,0.885 0.524,1.322l-2.403,1.078c0.117,0.282 0.237,0.563 0.359,0.843l2.442,-0.983c0.19,0.434 0.387,0.865 0.59,1.293l-2.344,1.2c0.131,0.276 0.266,0.55 0.403,0.824l2.388,-1.108c0.212,0.424 0.429,0.845 0.654,1.262l-2.28,1.318c0.146,0.269 0.296,0.536 0.446,0.803l2.328,-1.229c0.233,0.412 0.471,0.822 0.717,1.227l-2.208,1.433c0.159,0.261 0.322,0.52 0.486,0.779l2.261,-1.346c0.255,0.4 0.515,0.795 0.782,1.187l-2.132,1.544c0.173,0.252 0.345,0.505 0.522,0.755l2.191,-1.46c0.275,0.385 0.557,0.766 0.842,1.144l-2.05,1.651c0.185,0.244 0.371,0.486 0.561,0.727l2.113,-1.571c0.294,0.371 0.594,0.738 0.899,1.101l-1.963,1.753c0.197,0.234 0.396,0.466 0.597,0.697l2.03,-1.677c0.313,0.356 0.631,0.707 0.955,1.054l-1.871,1.852c0.208,0.223 0.419,0.444 0.632,0.663l1.941,-1.779c0.331,0.34 0.666,0.675 1.007,1.005l-1.773,1.947c0.219,0.212 0.441,0.42 0.665,0.628l1.846,-1.876c0.348,0.322 0.7,0.641 1.058,0.953l-1.671,2.036c0.23,0.199 0.463,0.395 0.696,0.591l1.748,-1.969c0.364,0.304 0.731,0.605 1.106,0.899l-1.563,2.118c0.239,0.187 0.481,0.371 0.724,0.554l1.643,-2.057c0.38,0.286 0.764,0.565 1.153,0.839l-1.451,2.197c0.248,0.174 0.497,0.347 0.749,0.517l1.535,-2.139c0.394,0.265 0.794,0.523 1.196,0.776l-1.335,2.269c0.257,0.161 0.514,0.322 0.774,0.479l1.422,-2.217c0.407,0.244 0.82,0.481 1.236,0.714l-1.216,2.335c0.264,0.148 0.53,0.295 0.798,0.438l1.305,-2.288c0.419,0.223 0.843,0.438 1.27,0.649l-1.093,2.395c0.272,0.134 0.545,0.266 0.821,0.395l1.184,-2.352c0.43,0.201 0.864,0.394 1.301,0.583l-0.968,2.449c0.28,0.119 0.56,0.237 0.842,0.352l1.062,-2.41c0.439,0.178 0.881,0.349 1.327,0.514l-0.839,2.496c0.286,0.105 0.573,0.208 0.861,0.309l0.936,-2.462c0.446,0.155 0.896,0.303 1.35,0.446l-0.71,2.535c0.292,0.09 0.585,0.179 0.88,0.265l0.808,-2.506c0.453,0.132 0.909,0.256 1.368,0.375l-0.58,2.568c0.298,0.076 0.597,0.15 0.898,0.221l0.68,-2.543c0.23,0.054 0.458,0.109 0.689,0.16c0.232,0.051 0.463,0.096 0.694,0.144l-0.45,2.594c0.303,0.061 0.606,0.12 0.908,0.176l0.551,-2.575c0.467,0.085 0.933,0.163 1.399,0.234l-0.317,2.614c0.303,0.045 0.607,0.088 0.91,0.128l0.418,-2.599c0.472,0.061 0.943,0.115 1.413,0.162l-0.183,2.627c0.304,0.029 0.608,0.056 0.911,0.08l0.285,-2.617c0.474,0.037 0.948,0.067 1.421,0.09l-0.048,2.633c0.304,0.014 0.608,0.025 0.912,0.033l0.149,-2.629c0.476,0.013 0.951,0.019 1.425,0.017l0.089,2.632c0.304,-0.001 0.607,-0.007 0.911,-0.014l0.012,-2.633c0.476,-0.012 0.951,-0.03 1.425,-0.057l0.225,2.625c0.303,-0.018 0.605,-0.04 0.907,-0.063l-0.124,-2.63c0.475,-0.037 0.949,-0.078 1.421,-0.129l0.361,2.609c0.301,-0.033 0.602,-0.071 0.903,-0.11l-0.261,-2.62c0.472,-0.061 0.943,-0.127 1.412,-0.202l0.495,2.585c0.3,-0.049 0.599,-0.101 0.898,-0.156l-0.396,-2.602c0.468,-0.086 0.934,-0.178 1.398,-0.278l0.629,2.556c0.298,-0.064 0.595,-0.129 0.89,-0.199l-0.53,-2.578c0.463,-0.11 0.922,-0.229 1.38,-0.352l0.761,2.52c0.294,-0.079 0.587,-0.159 0.88,-0.244l-0.663,-2.55c0.455,-0.133 0.909,-0.274 1.359,-0.421l0.89,2.478c0.289,-0.095 0.579,-0.191 0.867,-0.291l-0.793,-2.511c0.448,-0.156 0.893,-0.32 1.335,-0.49l1.016,2.429c0.285,-0.109 0.569,-0.221 0.852,-0.336l-0.921,-2.467c0.439,-0.179 0.875,-0.364 1.308,-0.557l1.139,2.374c0.28,-0.124 0.557,-0.251 0.834,-0.381l-1.046,-2.416c0.429,-0.201 0.855,-0.407 1.278,-0.621l1.259,2.312c0.273,-0.139 0.544,-0.281 0.814,-0.425l-1.168,-2.358c0.417,-0.223 0.833,-0.451 1.244,-0.686l1.377,2.246c0.265,-0.153 0.528,-0.31 0.79,-0.467l-1.287,-2.296c0.406,-0.244 0.808,-0.493 1.207,-0.749l1.488,2.17c0.258,-0.166 0.514,-0.333 0.768,-0.504l-1.403,-2.227c0.393,-0.264 0.781,-0.536 1.165,-0.812l1.598,2.092c0.249,-0.179 0.497,-0.358 0.742,-0.542l-1.516,-2.153c0.379,-0.284 0.752,-0.575 1.122,-0.871l1.703,2.007c0.239,-0.191 0.477,-0.383 0.712,-0.578l-1.624,-2.073c0.364,-0.303 0.723,-0.613 1.078,-0.927l1.803,1.918c0.229,-0.203 0.455,-0.408 0.68,-0.615l-1.729,-1.986c0.349,-0.322 0.692,-0.649 1.03,-0.982l1.901,1.824c0.217,-0.215 0.432,-0.431 0.645,-0.649l-1.827,-1.895c0.331,-0.339 0.658,-0.683 0.979,-1.033l1.992,1.723c0.205,-0.224 0.408,-0.452 0.61,-0.681l-1.924,-1.797c0.314,-0.356 0.623,-0.716 0.926,-1.083l2.079,1.619c0.193,-0.235 0.382,-0.473 0.572,-0.711l-2.014,-1.696c0.295,-0.372 0.586,-0.748 0.87,-1.13l2.158,1.508c0.18,-0.244 0.359,-0.49 0.536,-0.737l-2.099,-1.59c0.275,-0.387 0.544,-0.779 0.808,-1.175l2.233,1.394c0.169,-0.253 0.336,-0.506 0.499,-0.762l-2.179,-1.479c0.255,-0.401 0.502,-0.807 0.745,-1.216l2.303,1.276c0.155,-0.261 0.308,-0.522 0.459,-0.787l-2.254,-1.364c0.234,-0.413 0.46,-0.831 0.682,-1.253l2.366,1.155c0.141,-0.269 0.281,-0.538 0.417,-0.81l-2.321,-1.245c0.211,-0.425 0.416,-0.854 0.616,-1.286l2.423,1.03c0.126,-0.275 0.252,-0.552 0.373,-0.831l-2.381,-1.123c0.189,-0.434 0.372,-0.873 0.548,-1.315l2.473,0.904c0.113,-0.283 0.223,-0.567 0.331,-0.852l-2.436,-0.999c0.166,-0.443 0.326,-0.889 0.479,-1.339l2.516,0.775c0.098,-0.289 0.194,-0.579 0.287,-0.871l-2.484,-0.872c0.143,-0.45 0.28,-0.903 0.41,-1.36l2.553,0.646c0.083,-0.296 0.164,-0.592 0.243,-0.89l-2.526,-0.744c0.12,-0.455 0.233,-0.914 0.34,-1.375l2.582,0.515Z" style="fill:#01b901;fill-rule:nonzero;"/><path id="歯車-右上" d="M433.912,217.706l-70.246,-91.347c0.326,-0.365 0.641,-0.746 0.925,-1.162c1.637,-2.386 2.224,-5.175 1.886,-7.837l108.608,-38.587c3.831,11.521 6.065,23.789 6.412,36.553c1.124,41.268 -17.641,78.455 -47.585,102.38m-75.481,27.576c-26.902,0.733 -52.065,-6.99 -72.956,-20.748l65.17,-95.035c0.146,0.06 0.291,0.118 0.439,0.172c0.066,0.025 0.132,0.044 0.199,0.066c0.117,0.042 0.235,0.082 0.354,0.119c0.049,0.016 0.095,0.035 0.146,0.051c0.003,-0 0.007,0.001 0.011,0.003c0.107,0.031 0.214,0.058 0.321,0.085c0.091,0.025 0.184,0.042 0.275,0.064c0.149,0.035 0.295,0.072 0.447,0.102c0.027,0.005 0.056,0.013 0.084,0.019c0.082,0.015 0.166,0.027 0.249,0.041c0.141,0.022 0.284,0.034 0.427,0.053c0.051,0.006 0.1,0.013 0.151,0.019c0.109,0.012 0.219,0.032 0.328,0.041c0.058,0.004 0.116,0.006 0.175,0.011c0.166,0.01 0.335,0.009 0.502,0.013c0.16,0.003 0.32,0.012 0.48,0.009c0.023,-0.001 0.046,0.002 0.069,0.001c0.024,-0.001 0.046,-0.004 0.069,-0.005c0.16,-0.005 0.32,-0.023 0.479,-0.035c0.167,-0.013 0.335,-0.021 0.501,-0.04c0.058,-0.008 0.117,-0.013 0.174,-0.021c0.109,-0.015 0.217,-0.041 0.326,-0.059c0.05,-0.008 0.1,-0.018 0.149,-0.027c0.141,-0.026 0.284,-0.046 0.424,-0.076c0.082,-0.018 0.165,-0.035 0.246,-0.054c0.028,-0.008 0.056,-0.018 0.083,-0.024c0.15,-0.038 0.296,-0.084 0.442,-0.127c0.089,-0.026 0.18,-0.049 0.268,-0.076c0.107,-0.035 0.212,-0.068 0.317,-0.105l0.013,-0.003c0.047,-0.018 0.092,-0.04 0.14,-0.058c0.118,-0.043 0.233,-0.091 0.35,-0.138c0.065,-0.026 0.129,-0.049 0.193,-0.078c0.21,-0.09 0.414,-0.19 0.616,-0.292l70.225,91.322c-20.142,14.946 -44.911,24.076 -71.886,24.81m-129.957,-123.066c-0.347,-12.764 1.216,-25.136 4.416,-36.848l110.796,32.694c-0.016,0.244 -0.023,0.489 -0.023,0.734c-0.004,0.164 -0.004,0.326 -0.001,0.488c0,0.02 -0.001,0.04 -0.001,0.061c0.001,0.022 0.005,0.044 0.005,0.068c0.002,0.06 0.007,0.12 0.01,0.18c0.013,0.264 0.034,0.526 0.065,0.785c0.009,0.065 0.015,0.13 0.024,0.194c0.003,0.031 0.01,0.064 0.014,0.094c0.039,0.255 0.085,0.507 0.139,0.757c0.022,0.105 0.043,0.209 0.068,0.313c0.059,0.238 0.129,0.473 0.202,0.706c0.034,0.108 0.065,0.22 0.101,0.327c0.099,0.282 0.211,0.558 0.331,0.831c0.042,0.096 0.086,0.189 0.13,0.283c0.017,0.036 0.037,0.071 0.055,0.107c0,0.001 0,0.001 0.001,0.001c0.105,0.214 0.21,0.428 0.327,0.634c0.043,0.076 0.09,0.15 0.134,0.226c0.039,0.066 0.082,0.127 0.122,0.192c0.098,0.157 0.197,0.313 0.303,0.465c0.058,0.084 0.117,0.166 0.178,0.247c0.044,0.06 0.09,0.119 0.135,0.178c0.107,0.14 0.217,0.277 0.331,0.411c0.073,0.087 0.147,0.172 0.223,0.257c0.038,0.043 0.076,0.088 0.116,0.131c0.07,0.076 0.14,0.152 0.214,0.226l-65.16,95.019c-31.296,-22.251 -52.129,-58.419 -53.255,-99.761m120.802,-129.866l3.142,115.409c-1.532,0.356 -3.014,1.027 -4.341,2.047c-1.394,1.072 -2.456,2.408 -3.199,3.88l-110.718,-32.671c15.469,-49.517 60.614,-86.221 115.116,-88.665m3.603,121.433c0.068,-0.028 0.136,-0.056 0.205,-0.081c0.024,-0.008 0.046,-0.019 0.069,-0.027c0.068,-0.023 0.137,-0.04 0.205,-0.06c0.1,-0.031 0.198,-0.062 0.3,-0.087c0.017,-0.003 0.033,-0.009 0.05,-0.013c0.009,-0.002 0.019,-0.003 0.028,-0.006c0.357,-0.079 0.725,-0.129 1.103,-0.139c0.379,-0.01 0.749,0.019 1.109,0.079c0.01,0.002 0.021,0.003 0.029,0.004c0.017,0.003 0.034,0.008 0.05,0.011c0.103,0.019 0.205,0.045 0.305,0.07c0.069,0.016 0.138,0.03 0.207,0.049c0.024,0.007 0.048,0.016 0.071,0.023c0.071,0.021 0.14,0.046 0.21,0.07c0.085,0.028 0.172,0.056 0.255,0.089c0.021,0.008 0.043,0.018 0.064,0.027c0.081,0.033 0.159,0.07 0.237,0.106c0.068,0.032 0.137,0.062 0.204,0.096c0.014,0.007 0.029,0.015 0.042,0.022c0.093,0.05 0.185,0.104 0.276,0.158c0.056,0.033 0.113,0.065 0.167,0.1c0.001,0.001 0.003,0.002 0.004,0.003c0.102,0.065 0.198,0.136 0.294,0.207c0.05,0.037 0.102,0.073 0.15,0.112c0.091,0.071 0.177,0.147 0.261,0.224c0.053,0.048 0.106,0.093 0.156,0.141c0.073,0.07 0.141,0.146 0.211,0.219c0.057,0.063 0.117,0.125 0.173,0.19c0.052,0.062 0.101,0.128 0.152,0.193c0.065,0.084 0.129,0.167 0.189,0.254c0.036,0.051 0.067,0.104 0.101,0.156c0.068,0.105 0.133,0.21 0.195,0.32c0.022,0.039 0.041,0.08 0.062,0.121c0.064,0.123 0.127,0.248 0.182,0.376c0.014,0.032 0.026,0.067 0.04,0.101c0.055,0.135 0.108,0.271 0.153,0.41c0.01,0.037 0.02,0.075 0.031,0.113c0.041,0.136 0.079,0.274 0.11,0.413c0.011,0.049 0.018,0.101 0.027,0.152c0.025,0.129 0.048,0.259 0.064,0.39c0.007,0.063 0.01,0.129 0.015,0.193c0.007,0.081 0.013,0.163 0.016,0.245c-0.006,1.693 -0.762,3.367 -2.208,4.478c-0.922,0.711 -1.994,1.091 -3.074,1.163c-0.033,0.001 -0.066,0.003 -0.1,0.004c-0.033,0.001 -0.066,0 -0.1,0.001c-1.082,-0.012 -2.173,-0.334 -3.132,-0.993c-2.583,-1.77 -3.24,-5.298 -1.469,-7.879c0.162,-0.238 0.343,-0.452 0.534,-0.657c0.045,-0.042 0.089,-0.089 0.137,-0.13c0.045,-0.042 0.095,-0.08 0.143,-0.12c0.092,-0.076 0.184,-0.152 0.28,-0.222c0.003,-0.001 0.004,-0.002 0.006,-0.004c0.052,-0.038 0.107,-0.072 0.161,-0.109c0.088,-0.058 0.176,-0.118 0.267,-0.172c0.013,-0.008 0.027,-0.017 0.041,-0.025c0.063,-0.037 0.132,-0.071 0.198,-0.107c0.076,-0.04 0.152,-0.081 0.231,-0.118c0.021,-0.01 0.042,-0.021 0.063,-0.03c0.082,-0.039 0.166,-0.071 0.25,-0.104m120.7,-39.287l-108.561,38.57c-0.818,-1.4 -1.939,-2.652 -3.364,-3.629c-1.457,-1 -3.066,-1.599 -4.704,-1.848l-3.141,-115.363c54.554,-0.525 101.63,33.668 119.77,82.27m31.401,43.507c-0.006,-1.103 -0.019,-2.207 -0.049,-3.315c-0.03,-1.108 -0.077,-2.211 -0.132,-3.311l-15.062,-0.698c-0.162,-2.733 -0.408,-5.442 -0.729,-8.128l14.706,-3.361c-0.285,-2.188 -0.624,-4.358 -1.001,-6.513l-15.031,1.185c-0.503,-2.695 -1.087,-5.362 -1.747,-7.997l14.167,-5.182c-0.555,-2.124 -1.157,-4.227 -1.803,-6.312l-14.765,3.071c-0.838,-2.609 -1.753,-5.183 -2.742,-7.72l13.396,-6.927c-0.818,-2.034 -1.676,-4.049 -2.578,-6.037l-14.266,4.914c-1.158,-2.479 -2.384,-4.919 -3.685,-7.312l12.409,-8.556c-1.07,-1.918 -2.176,-3.812 -3.327,-5.676l-13.529,6.666c-1.457,-2.309 -2.977,-4.573 -4.568,-6.783l11.235,-10.043c-1.303,-1.771 -2.644,-3.513 -4.023,-5.224l-12.581,8.3c-1.732,-2.104 -3.528,-4.152 -5.382,-6.146l9.899,-11.373c-1.516,-1.596 -3.068,-3.157 -4.652,-4.685l-11.443,9.801c-1.979,-1.87 -4.019,-3.676 -6.109,-5.424l8.409,-12.523c-1.701,-1.393 -3.436,-2.746 -5.198,-4.065l-10.14,11.16c-2.196,-1.609 -4.443,-3.153 -6.736,-4.629l6.776,-13.467c-1.858,-1.167 -3.74,-2.3 -5.65,-3.386l-8.668,12.346c-2.382,-1.322 -4.804,-2.581 -7.27,-3.76l5.031,-14.204c-1.983,-0.923 -3.989,-1.805 -6.018,-2.642l-7.045,13.333c-2.528,-1.012 -5.094,-1.952 -7.694,-2.811l3.202,-14.731c-2.08,-0.663 -4.179,-1.283 -6.297,-1.857l-5.302,14.111c-2.633,-0.684 -5.298,-1.287 -7.99,-1.813l1.317,-15.02c-2.148,-0.396 -4.312,-0.743 -6.491,-1.046l-3.481,14.663c-2.689,-0.345 -5.404,-0.607 -8.139,-0.792l-0.579,-15.063c-2.192,-0.124 -4.396,-0.199 -6.611,-0.228l-1.626,14.983c-1.355,-0.003 -2.713,0.007 -4.077,0.044c-1.362,0.037 -2.719,0.101 -4.072,0.178l-2.439,-14.872c-2.21,0.149 -4.406,0.344 -6.589,0.587l0.241,15.072c-2.721,0.334 -5.417,0.743 -8.084,1.234l-4.273,-14.452c-2.159,0.421 -4.3,0.886 -6.423,1.398l2.131,14.926c-2.659,0.672 -5.287,1.419 -7.879,2.245l-6.063,-13.802c-2.082,0.689 -4.144,1.421 -6.184,2.196l3.997,14.535c-2.548,1.001 -5.059,2.078 -7.528,3.226l-7.759,-12.93c-1.981,0.946 -3.936,1.936 -5.865,2.965l5.796,13.909c-2.399,1.312 -4.748,2.7 -7.055,4.15l-9.326,-11.856c-1.849,1.189 -3.666,2.422 -5.457,3.688l7.499,13.079c-2.211,1.598 -4.369,3.263 -6.475,4.988l-10.733,-10.591c-1.687,1.412 -3.345,2.857 -4.969,4.341l9.078,12.048c-1.991,1.859 -3.931,3.772 -5.805,5.747l-11.959,-9.164c-1.499,1.612 -2.964,3.255 -4.391,4.932l10.503,10.817c-1.742,2.092 -3.424,4.235 -5.039,6.43l-13.015,-7.604c-1.282,1.784 -2.526,3.596 -3.733,5.436l11.766,9.416c-1.467,2.294 -2.864,4.637 -4.193,7.023l-13.871,-5.921c-1.047,1.925 -2.05,3.876 -3.013,5.849l12.855,7.868c-1.169,2.46 -2.261,4.963 -3.282,7.501l-14.511,-4.129c-0.794,2.035 -1.54,4.093 -2.247,6.169l13.753,6.188c-0.85,2.588 -1.623,5.208 -2.317,7.859l-14.911,-2.264c-0.53,2.117 -1.018,4.251 -1.457,6.401l14.428,4.403c-0.516,2.668 -0.954,5.362 -1.309,8.082l-15.073,-0.366c-0.26,2.173 -0.479,4.358 -0.644,6.557l14.865,2.556c-0.175,2.7 -0.271,5.419 -0.285,8.156l-15.002,1.516c0.006,1.102 0.019,2.206 0.049,3.314c0.03,1.107 0.077,2.21 0.132,3.312l15.062,0.696c0.162,2.734 0.407,5.444 0.728,8.128l-14.704,3.363c0.284,2.187 0.622,4.357 1,6.513l15.03,-1.187c0.504,2.696 1.088,5.363 1.748,7.998l-14.168,5.182c0.556,2.123 1.159,4.228 1.804,6.312l14.765,-3.072c0.837,2.61 1.752,5.184 2.74,7.721l-13.394,6.926c0.818,2.035 1.676,4.05 2.578,6.039l14.266,-4.914c1.158,2.479 2.384,4.919 3.685,7.311l-12.409,8.556c1.07,1.918 2.177,3.812 3.328,5.676l13.528,-6.666c1.457,2.309 2.977,4.572 4.567,6.783l-11.236,10.042c1.305,1.773 2.647,3.514 4.024,5.226l12.581,-8.301c1.733,2.104 3.529,4.152 5.383,6.146l-9.9,11.373c1.517,1.596 3.069,3.157 4.652,4.685l11.444,-9.801c1.98,1.871 4.019,3.674 6.109,5.423l-8.409,12.524c1.701,1.393 3.436,2.746 5.198,4.064l10.139,-11.158c2.198,1.607 4.444,3.152 6.738,4.628l-6.777,13.466c1.858,1.168 3.74,2.301 5.65,3.387l8.668,-12.346c2.382,1.322 4.803,2.582 7.27,3.761l-5.031,14.203c1.983,0.922 3.989,1.805 6.018,2.642l7.044,-13.333c2.529,1.011 5.095,1.951 7.694,2.811l-3.201,14.731c2.08,0.664 4.179,1.282 6.296,1.857l5.303,-14.111c2.633,0.684 5.298,1.288 7.99,1.814l-1.316,15.019c2.147,0.395 4.311,0.744 6.49,1.047l3.481,-14.664c2.689,0.345 5.403,0.608 8.139,0.791l0.579,15.064c2.192,0.124 4.396,0.199 6.611,0.228l1.626,-14.983c1.355,0.003 2.713,-0.007 4.076,-0.044c1.363,-0.038 2.72,-0.101 4.073,-0.178l2.44,14.872c2.208,-0.149 4.405,-0.344 6.588,-0.587l-0.242,-15.073c2.721,-0.332 5.417,-0.742 8.084,-1.233l4.274,14.453c2.158,-0.422 4.3,-0.887 6.424,-1.399l-2.132,-14.925c2.659,-0.672 5.287,-1.42 7.878,-2.246l6.063,13.801c2.082,-0.687 4.145,-1.42 6.185,-2.196l-3.998,-14.534c2.549,-1 5.06,-2.078 7.529,-3.227l7.759,12.931c1.981,-0.946 3.936,-1.937 5.865,-2.965l-5.796,-13.91c2.399,-1.31 4.748,-2.7 7.053,-4.148l9.328,11.855c1.849,-1.189 3.666,-2.422 5.457,-3.688l-7.499,-13.078c2.211,-1.6 4.37,-3.264 6.475,-4.989l10.733,10.591c1.687,-1.413 3.345,-2.857 4.969,-4.342l-9.078,-12.047c1.99,-1.86 3.931,-3.772 5.805,-5.747l11.959,9.163c1.499,-1.612 2.964,-3.254 4.391,-4.931l-10.504,-10.816c1.744,-2.092 3.425,-4.236 5.04,-6.431l13.014,7.604c1.284,-1.783 2.527,-3.596 3.734,-5.437l-11.766,-9.416c1.467,-2.294 2.862,-4.637 4.193,-7.021l13.872,5.92c1.046,-1.925 2.049,-3.876 3.012,-5.849l-12.856,-7.868c1.169,-2.461 2.262,-4.964 3.283,-7.502l14.511,4.13c0.794,-2.035 1.54,-4.094 2.247,-6.17l-13.753,-6.187c0.85,-2.587 1.623,-5.207 2.318,-7.859l14.91,2.264c0.53,-2.117 1.018,-4.251 1.457,-6.401l-14.429,-4.404c0.516,-2.667 0.954,-5.362 1.31,-8.081l15.073,0.366c0.26,-2.172 0.479,-4.358 0.645,-6.557l-14.866,-2.557c0.174,-2.699 0.271,-5.417 0.285,-8.156l15.002,-1.514Z" style="fill:#01b901;fill-rule:nonzero;"/><path id="_3連歯車-大" serif:id="3連歯車-大" d="M84.571,401.994l24.71,-112.702c0.049,0.001 0.099,-0.002 0.149,-0.003c0.342,0.001 0.683,-0.011 1.021,-0.036c0.131,-0.011 0.262,-0.025 0.392,-0.038c0.267,-0.028 0.532,-0.064 0.795,-0.108c0.126,-0.022 0.253,-0.04 0.378,-0.066c0.355,-0.07 0.706,-0.151 1.053,-0.249c0.051,-0.015 0.101,-0.032 0.152,-0.048c0.327,-0.097 0.648,-0.208 0.965,-0.33c0.12,-0.045 0.237,-0.096 0.355,-0.146c0.242,-0.1 0.481,-0.21 0.716,-0.325c0.114,-0.056 0.23,-0.111 0.343,-0.17c0.306,-0.162 0.607,-0.333 0.9,-0.518c0.047,-0.029 0.092,-0.059 0.138,-0.088c0.29,-0.189 0.572,-0.391 0.847,-0.601c0.101,-0.079 0.199,-0.159 0.298,-0.24c0.203,-0.166 0.401,-0.337 0.595,-0.514c0.095,-0.087 0.189,-0.172 0.28,-0.262c0.244,-0.237 0.48,-0.482 0.704,-0.737c0.036,-0.041 0.073,-0.08 0.107,-0.12c0.235,-0.272 0.456,-0.559 0.667,-0.851c0.075,-0.104 0.146,-0.211 0.218,-0.317c0.15,-0.22 0.294,-0.446 0.43,-0.677c0.068,-0.113 0.136,-0.225 0.199,-0.34c0.165,-0.297 0.319,-0.6 0.46,-0.912c0.021,-0.045 0.046,-0.089 0.066,-0.134l112.702,24.71c-16.082,66.88 -82.166,109.197 -149.64,95.822m-100.965,-150.767l112.701,24.71c-0.002,0.127 0.009,0.252 0.01,0.378c0.004,0.211 0.005,0.42 0.018,0.629c0.011,0.17 0.03,0.339 0.047,0.509c0.021,0.206 0.041,0.412 0.071,0.614c0.026,0.17 0.06,0.336 0.091,0.504c0.038,0.199 0.075,0.399 0.122,0.596c0.04,0.168 0.088,0.333 0.134,0.499c0.055,0.191 0.107,0.383 0.17,0.572c0.054,0.166 0.116,0.329 0.178,0.492c0.068,0.183 0.135,0.365 0.212,0.544c0.07,0.164 0.148,0.324 0.223,0.484c0.083,0.172 0.163,0.345 0.252,0.513c0.085,0.161 0.177,0.317 0.269,0.474c0.093,0.161 0.186,0.322 0.286,0.478c0.101,0.158 0.209,0.308 0.315,0.461c0.104,0.149 0.208,0.298 0.318,0.443c0.115,0.151 0.239,0.296 0.361,0.442c0.113,0.137 0.226,0.274 0.346,0.405c0.131,0.145 0.268,0.283 0.406,0.421c0.122,0.124 0.243,0.25 0.371,0.369c0.146,0.135 0.299,0.263 0.45,0.393c0.131,0.111 0.26,0.223 0.396,0.329c0.16,0.126 0.326,0.243 0.492,0.362c0.138,0.098 0.274,0.199 0.418,0.292c0.172,0.112 0.351,0.217 0.528,0.323c0.147,0.085 0.292,0.174 0.444,0.255c0.184,0.099 0.372,0.188 0.563,0.278c0.113,0.055 0.223,0.118 0.339,0.168l-24.71,112.702c-66.88,-16.081 -109.198,-82.165 -95.821,-149.639m150.766,-100.966l-24.71,112.702c-0.049,-0.002 -0.098,0.003 -0.148,0.003c-0.343,-0.002 -0.683,0.012 -1.021,0.037c-0.132,0.009 -0.262,0.024 -0.393,0.037c-0.267,0.029 -0.532,0.065 -0.795,0.109c-0.126,0.02 -0.253,0.04 -0.378,0.064c-0.355,0.071 -0.706,0.152 -1.052,0.251c-0.052,0.014 -0.102,0.031 -0.153,0.046c-0.327,0.098 -0.648,0.209 -0.964,0.331c-0.12,0.046 -0.237,0.096 -0.355,0.145c-0.242,0.102 -0.482,0.21 -0.717,0.326c-0.115,0.056 -0.23,0.111 -0.342,0.17c-0.307,0.163 -0.608,0.333 -0.901,0.518c-0.046,0.03 -0.091,0.059 -0.137,0.088c-0.29,0.189 -0.573,0.39 -0.848,0.602c-0.101,0.077 -0.198,0.159 -0.297,0.24c-0.203,0.164 -0.402,0.336 -0.595,0.514c-0.095,0.087 -0.19,0.172 -0.282,0.261c-0.242,0.236 -0.478,0.482 -0.703,0.738c-0.035,0.04 -0.072,0.078 -0.107,0.119c-0.234,0.273 -0.454,0.558 -0.667,0.852c-0.075,0.103 -0.145,0.21 -0.217,0.315c-0.151,0.221 -0.294,0.446 -0.431,0.677c-0.067,0.113 -0.135,0.225 -0.199,0.34c-0.164,0.298 -0.318,0.601 -0.46,0.913c-0.021,0.046 -0.046,0.088 -0.065,0.133l-112.703,-24.709c16.082,-66.88 82.166,-109.198 149.64,-95.822m-31.331,124.456c0.779,-3.551 4.289,-5.797 7.84,-5.019c3.551,0.779 5.799,4.288 5.021,7.839c-0.779,3.551 -4.289,5.799 -7.84,5.02c-3.551,-0.778 -5.799,-4.289 -5.021,-7.84m132.298,26.31l-112.702,-24.709c0.002,-0.126 -0.008,-0.252 -0.011,-0.378c-0.003,-0.21 -0.004,-0.421 -0.017,-0.628c-0.011,-0.172 -0.031,-0.341 -0.048,-0.51c-0.02,-0.206 -0.04,-0.411 -0.071,-0.615c-0.025,-0.169 -0.059,-0.336 -0.09,-0.503c-0.038,-0.199 -0.075,-0.4 -0.123,-0.597c-0.039,-0.168 -0.087,-0.332 -0.134,-0.497c-0.054,-0.193 -0.107,-0.384 -0.168,-0.573c-0.055,-0.166 -0.119,-0.329 -0.18,-0.492c-0.068,-0.182 -0.135,-0.365 -0.212,-0.544c-0.069,-0.164 -0.147,-0.323 -0.223,-0.484c-0.082,-0.173 -0.163,-0.345 -0.252,-0.513c-0.085,-0.161 -0.177,-0.317 -0.269,-0.474c-0.093,-0.161 -0.185,-0.321 -0.286,-0.479c-0.1,-0.156 -0.208,-0.308 -0.315,-0.46c-0.104,-0.149 -0.207,-0.298 -0.317,-0.442c-0.116,-0.152 -0.239,-0.297 -0.361,-0.443c-0.114,-0.137 -0.226,-0.275 -0.347,-0.406c-0.13,-0.145 -0.267,-0.282 -0.405,-0.42c-0.123,-0.124 -0.244,-0.249 -0.372,-0.368c-0.146,-0.136 -0.297,-0.265 -0.449,-0.393c-0.132,-0.111 -0.261,-0.224 -0.396,-0.331c-0.16,-0.125 -0.326,-0.242 -0.492,-0.36c-0.138,-0.099 -0.276,-0.199 -0.419,-0.293c-0.171,-0.113 -0.35,-0.217 -0.528,-0.322c-0.147,-0.087 -0.292,-0.175 -0.444,-0.256c-0.183,-0.098 -0.372,-0.189 -0.562,-0.279c-0.114,-0.054 -0.223,-0.116 -0.34,-0.168l24.71,-112.701c66.88,16.082 109.198,82.165 95.823,149.638m19.902,10.453c0.26,-1.072 0.514,-2.146 0.751,-3.229c0.237,-1.082 0.456,-2.164 0.668,-3.246l-14.452,-4.301c0.501,-2.693 0.914,-5.381 1.249,-8.065l15.081,0.276c0.25,-2.192 0.445,-4.379 0.596,-6.562l-14.874,-2.467c0.162,-2.737 0.237,-5.466 0.23,-8.183l14.998,-1.619c-0.028,-2.195 -0.107,-4.382 -0.231,-6.561l-15.07,-0.571c-0.185,-2.735 -0.454,-5.454 -0.803,-8.154l14.669,-3.499c-0.305,-2.172 -0.651,-4.334 -1.051,-6.481l-15.028,1.336c-0.527,-2.685 -1.13,-5.348 -1.817,-7.984l14.103,-5.318c-0.576,-2.119 -1.195,-4.223 -1.862,-6.31l-14.736,3.215c-0.858,-2.592 -1.79,-5.155 -2.802,-7.684l13.323,-7.042c-0.84,-2.034 -1.722,-4.048 -2.648,-6.04l-14.208,5.029c-1.175,-2.459 -2.426,-4.88 -3.746,-7.262l12.346,-8.655c-1.087,-1.915 -2.218,-3.803 -3.387,-5.667l-13.466,6.759c-1.472,-2.292 -3.018,-4.534 -4.625,-6.735l11.176,-10.131c-1.316,-1.762 -2.674,-3.492 -4.067,-5.196l-12.528,8.391c-1.745,-2.09 -3.553,-4.13 -5.424,-6.115l9.817,-11.439c-1.522,-1.58 -3.075,-3.133 -4.668,-4.647l-11.385,9.897c-1.994,-1.857 -4.041,-3.661 -6.151,-5.399l8.302,-12.576c-1.704,-1.372 -3.438,-2.712 -5.205,-4.012l-10.047,11.246c-2.211,-1.591 -4.474,-3.121 -6.791,-4.581l6.653,-13.527c-1.86,-1.144 -3.748,-2.251 -5.664,-3.318l-8.544,12.42c-2.39,-1.297 -4.831,-2.524 -7.317,-3.682l4.891,-14.262c-1.989,-0.901 -4.006,-1.759 -6.047,-2.577l-6.907,13.394c-2.528,-0.982 -5.1,-1.89 -7.71,-2.727l3.062,-14.761c-2.096,-0.647 -4.218,-1.25 -6.36,-1.81l-5.185,14.15c-1.314,-0.33 -2.634,-0.646 -3.967,-0.938c-1.332,-0.293 -2.664,-0.557 -3.995,-0.808l1.211,-15.021c-2.181,-0.387 -4.36,-0.727 -6.536,-1.017l-3.394,14.688c-2.72,-0.331 -5.436,-0.583 -8.143,-0.749l-0.67,-15.055c-2.195,-0.111 -4.386,-0.175 -6.571,-0.189l-1.522,15c-2.743,0.012 -5.473,0.105 -8.187,0.283l-2.564,-14.855c-2.187,0.167 -4.364,0.381 -6.531,0.643l0.382,15.07c-2.716,0.357 -5.411,0.799 -8.084,1.319l-4.419,-14.418c-2.151,0.442 -4.286,0.933 -6.407,1.466l2.278,14.896c-2.643,0.696 -5.257,1.478 -7.845,2.33l-6.198,-13.752c-2.081,0.709 -4.142,1.468 -6.185,2.268l4.131,14.497c-2.53,1.02 -5.027,2.116 -7.486,3.283l-7.867,-12.863c-1.978,0.966 -3.936,1.969 -5.868,3.019l5.912,13.878c-2.381,1.325 -4.722,2.716 -7.018,4.181l-9.403,-11.773c-1.843,1.204 -3.66,2.446 -5.447,3.73l7.59,13.027c-2.195,1.611 -4.343,3.286 -6.439,5.028l-10.801,-10.512c-1.675,1.422 -3.319,2.881 -4.932,4.377l9.154,11.972c-1.977,1.873 -3.895,3.811 -5.76,5.806l-12.039,-9.085c-1.479,1.617 -2.921,3.269 -4.332,4.952l10.584,10.731c-1.726,2.107 -3.389,4.273 -4.991,6.491l-13.09,-7.501c-1.262,1.784 -2.481,3.602 -3.666,5.448l11.859,9.315c-1.447,2.307 -2.828,4.664 -4.14,7.071l-13.928,-5.786c-1.023,1.927 -2.011,3.88 -2.955,5.862l12.944,7.746c-1.141,2.465 -2.216,4.975 -3.215,7.529l-14.541,-3.983c-0.776,2.047 -1.514,4.115 -2.204,6.209l13.814,6.059c-0.82,2.578 -1.568,5.194 -2.241,7.848l-14.926,-2.14c-0.258,1.072 -0.512,2.146 -0.75,3.228c-0.237,1.083 -0.456,2.165 -0.669,3.247l14.452,4.301c-0.5,2.692 -0.915,5.381 -1.248,8.064l-15.083,-0.275c-0.248,2.192 -0.444,4.379 -0.595,6.562l14.874,2.466c-0.162,2.737 -0.236,5.467 -0.23,8.183l-14.998,1.62c0.029,2.195 0.108,4.382 0.232,6.56l15.07,0.573c0.185,2.734 0.453,5.453 0.802,8.153l-14.669,3.499c0.305,2.171 0.652,4.333 1.051,6.482l15.028,-1.337c0.527,2.685 1.13,5.348 1.817,7.983l-14.102,5.318c0.576,2.119 1.195,4.225 1.862,6.31l14.735,-3.214c0.86,2.592 1.791,5.155 2.803,7.683l-13.323,7.043c0.839,2.035 1.721,4.047 2.648,6.04l14.209,-5.029c1.174,2.459 2.424,4.879 3.744,7.261l-12.345,8.656c1.087,1.914 2.217,3.802 3.387,5.667l13.466,-6.759c1.471,2.292 3.018,4.534 4.625,6.735l-11.176,10.131c1.315,1.761 2.674,3.492 4.067,5.196l12.528,-8.39c1.744,2.089 3.553,4.129 5.424,6.113l-9.818,11.441c1.522,1.58 3.076,3.132 4.67,4.646l11.383,-9.897c1.994,1.856 4.04,3.661 6.151,5.4l-8.302,12.574c1.704,1.373 3.438,2.712 5.206,4.013l10.046,-11.246c2.211,1.59 4.474,3.12 6.791,4.581l-6.652,13.528c1.859,1.144 3.748,2.249 5.664,3.316l8.543,-12.42c2.391,1.298 4.832,2.525 7.318,3.684l-4.892,14.26c1.99,0.901 4.006,1.761 6.048,2.579l6.908,-13.395c2.526,0.983 5.098,1.89 7.709,2.727l-3.063,14.76c2.097,0.647 4.218,1.251 6.361,1.812l5.184,-14.151c1.314,0.329 2.634,0.646 3.967,0.938c1.333,0.292 2.665,0.557 3.996,0.808l-1.212,15.022c2.181,0.387 4.36,0.726 6.536,1.016l3.394,-14.688c2.721,0.332 5.436,0.584 8.143,0.748l0.669,15.057c2.196,0.109 4.388,0.174 6.572,0.188l1.523,-14.999c2.743,-0.012 5.472,-0.106 8.187,-0.285l2.563,14.855c2.187,-0.166 4.365,-0.381 6.532,-0.642l-0.383,-15.07c2.715,-0.357 5.412,-0.799 8.085,-1.319l4.419,14.418c2.15,-0.442 4.285,-0.933 6.406,-1.467l-2.278,-14.895c2.643,-0.695 5.257,-1.479 7.844,-2.33l6.2,13.752c2.08,-0.709 4.141,-1.469 6.184,-2.267l-4.13,-14.498c2.53,-1.02 5.025,-2.116 7.485,-3.284l7.867,12.863c1.979,-0.965 3.937,-1.968 5.868,-3.018l-5.911,-13.877c2.38,-1.327 4.722,-2.716 7.018,-4.183l9.402,11.773c1.843,-1.204 3.66,-2.446 5.448,-3.73l-7.592,-13.026c2.196,-1.611 4.344,-3.287 6.44,-5.029l10.801,10.513c1.675,-1.422 3.319,-2.882 4.932,-4.378l-9.154,-11.971c1.978,-1.873 3.895,-3.812 5.76,-5.806l12.039,9.084c1.48,-1.615 2.921,-3.269 4.333,-4.952l-10.585,-10.73c1.727,-2.107 3.389,-4.274 4.991,-6.491l13.09,7.5c1.262,-1.784 2.482,-3.602 3.667,-5.446l-11.859,-9.317c1.447,-2.306 2.828,-4.663 4.14,-7.07l13.927,5.786c1.024,-1.927 2.012,-3.881 2.955,-5.862l-12.944,-7.747c1.142,-2.464 2.216,-4.974 3.216,-7.528l14.54,3.982c0.776,-2.045 1.514,-4.114 2.204,-6.209l-13.813,-6.059c0.819,-2.578 1.568,-5.193 2.24,-7.847l14.926,2.14Z" style="fill:#01b901;fill-rule:nonzero;"/><path id="_3連歯車-中" serif:id="3連歯車-中" d="M91.974,364.464l17.387,-79.079c0.034,0.001 0.069,-0.002 0.104,-0.002c0.24,0.001 0.479,-0.007 0.717,-0.025c0.092,-0.007 0.184,-0.018 0.275,-0.026c0.187,-0.02 0.373,-0.045 0.558,-0.076c0.088,-0.015 0.177,-0.028 0.265,-0.046c0.25,-0.049 0.496,-0.105 0.739,-0.174c0.036,-0.011 0.071,-0.023 0.108,-0.034c0.228,-0.068 0.454,-0.146 0.676,-0.231c0.084,-0.032 0.166,-0.067 0.249,-0.102c0.17,-0.071 0.338,-0.147 0.503,-0.228c0.08,-0.039 0.162,-0.078 0.241,-0.12c0.215,-0.113 0.427,-0.233 0.632,-0.363c0.032,-0.02 0.064,-0.041 0.096,-0.061c0.204,-0.133 0.402,-0.274 0.595,-0.422c0.071,-0.055 0.14,-0.111 0.209,-0.168c0.143,-0.116 0.282,-0.236 0.418,-0.361c0.066,-0.06 0.133,-0.12 0.197,-0.183c0.171,-0.166 0.337,-0.338 0.494,-0.517c0.025,-0.029 0.051,-0.056 0.075,-0.084c0.165,-0.191 0.32,-0.392 0.469,-0.597c0.053,-0.073 0.102,-0.148 0.152,-0.222c0.106,-0.155 0.207,-0.313 0.303,-0.475c0.047,-0.08 0.095,-0.158 0.139,-0.239c0.116,-0.208 0.225,-0.421 0.324,-0.64c0.015,-0.031 0.032,-0.062 0.046,-0.094l79.08,17.387c-11.314,46.927 -57.707,76.596 -105.051,67.182m-70.791,-105.843l79.078,17.386c-0.001,0.09 0.006,0.177 0.008,0.266c0.002,0.148 0.003,0.295 0.012,0.441c0.007,0.12 0.021,0.238 0.032,0.357c0.015,0.145 0.029,0.289 0.051,0.432c0.017,0.118 0.041,0.235 0.063,0.353c0.026,0.14 0.052,0.281 0.085,0.419c0.028,0.117 0.062,0.233 0.094,0.349c0.038,0.135 0.075,0.269 0.119,0.402c0.038,0.117 0.082,0.231 0.124,0.346c0.048,0.128 0.096,0.256 0.149,0.381c0.049,0.115 0.104,0.228 0.157,0.34c0.058,0.121 0.114,0.242 0.176,0.36c0.06,0.113 0.124,0.223 0.189,0.333c0.066,0.113 0.13,0.226 0.2,0.336c0.071,0.11 0.147,0.216 0.221,0.323c0.074,0.105 0.146,0.209 0.223,0.311c0.081,0.106 0.168,0.208 0.253,0.311c0.08,0.096 0.159,0.192 0.243,0.284c0.091,0.102 0.188,0.198 0.285,0.295c0.085,0.088 0.17,0.176 0.26,0.259c0.102,0.096 0.209,0.185 0.315,0.276c0.092,0.078 0.183,0.157 0.278,0.232c0.112,0.088 0.229,0.17 0.345,0.254c0.097,0.069 0.194,0.14 0.293,0.205c0.121,0.079 0.247,0.152 0.372,0.227c0.102,0.059 0.204,0.122 0.31,0.179c0.129,0.069 0.262,0.132 0.395,0.196c0.08,0.038 0.157,0.082 0.238,0.117l-17.387,79.08c-46.927,-11.313 -76.595,-57.706 -67.181,-105.05m105.843,-70.791l-17.387,79.078c-0.034,-0 -0.069,0.003 -0.104,0.003c-0.241,-0.002 -0.479,0.007 -0.717,0.025c-0.092,0.006 -0.184,0.017 -0.275,0.026c-0.188,0.02 -0.373,0.045 -0.558,0.076c-0.089,0.014 -0.178,0.028 -0.265,0.045c-0.25,0.05 -0.496,0.106 -0.739,0.175c-0.036,0.011 -0.072,0.022 -0.108,0.033c-0.229,0.068 -0.454,0.146 -0.676,0.232c-0.084,0.032 -0.166,0.067 -0.249,0.101c-0.17,0.072 -0.338,0.148 -0.503,0.229c-0.081,0.039 -0.162,0.078 -0.241,0.119c-0.215,0.114 -0.426,0.233 -0.632,0.363c-0.032,0.021 -0.064,0.041 -0.096,0.062c-0.204,0.132 -0.402,0.273 -0.595,0.422c-0.071,0.054 -0.14,0.111 -0.209,0.168c-0.143,0.116 -0.282,0.236 -0.418,0.361c-0.066,0.06 -0.133,0.12 -0.198,0.183c-0.17,0.165 -0.335,0.337 -0.493,0.517c-0.025,0.028 -0.051,0.055 -0.075,0.084c-0.165,0.191 -0.32,0.391 -0.469,0.597c-0.053,0.072 -0.102,0.148 -0.152,0.222c-0.106,0.154 -0.207,0.312 -0.303,0.474c-0.047,0.08 -0.095,0.158 -0.139,0.239c-0.116,0.209 -0.224,0.421 -0.324,0.641c-0.015,0.031 -0.031,0.061 -0.046,0.093l-79.079,-17.387c11.313,-46.927 57.705,-76.596 105.05,-67.181m-22.038,87.325c0.548,-2.492 3.012,-4.067 5.504,-3.519c2.491,0.547 4.067,3.011 3.519,5.503c-0.547,2.491 -3.012,4.067 -5.503,3.519c-2.492,-0.547 -4.068,-3.012 -3.52,-5.503m92.829,18.518l-79.078,-17.387c0.001,-0.089 -0.006,-0.177 -0.008,-0.266c-0.002,-0.147 -0.003,-0.295 -0.012,-0.44c-0.007,-0.12 -0.021,-0.239 -0.032,-0.358c-0.015,-0.145 -0.029,-0.288 -0.051,-0.432c-0.017,-0.118 -0.041,-0.235 -0.063,-0.353c-0.026,-0.139 -0.052,-0.28 -0.085,-0.418c-0.028,-0.118 -0.062,-0.234 -0.094,-0.349c-0.038,-0.136 -0.075,-0.27 -0.119,-0.403c-0.038,-0.116 -0.082,-0.23 -0.125,-0.345c-0.048,-0.128 -0.095,-0.256 -0.149,-0.382c-0.048,-0.115 -0.103,-0.227 -0.156,-0.339c-0.057,-0.122 -0.114,-0.243 -0.176,-0.361c-0.06,-0.112 -0.124,-0.222 -0.188,-0.332c-0.067,-0.113 -0.131,-0.226 -0.202,-0.337c-0.07,-0.109 -0.145,-0.216 -0.221,-0.323c-0.073,-0.104 -0.145,-0.209 -0.222,-0.31c-0.081,-0.106 -0.168,-0.208 -0.253,-0.311c-0.08,-0.096 -0.159,-0.193 -0.243,-0.285c-0.091,-0.101 -0.188,-0.198 -0.284,-0.295c-0.086,-0.087 -0.171,-0.175 -0.261,-0.258c-0.102,-0.096 -0.209,-0.186 -0.315,-0.276c-0.093,-0.079 -0.183,-0.158 -0.278,-0.233c-0.112,-0.087 -0.229,-0.17 -0.345,-0.253c-0.097,-0.069 -0.194,-0.139 -0.294,-0.206c-0.12,-0.079 -0.246,-0.152 -0.371,-0.226c-0.103,-0.06 -0.204,-0.122 -0.31,-0.179c-0.129,-0.069 -0.262,-0.133 -0.395,-0.196c-0.08,-0.038 -0.157,-0.082 -0.239,-0.118l17.387,-79.079c46.927,11.313 76.596,57.705 67.182,105.05m9.14,4.85c0.069,-0.301 0.144,-0.6 0.21,-0.903c0.067,-0.302 0.124,-0.605 0.188,-0.907l-5.12,-1.231c0.194,-0.928 0.373,-1.856 0.538,-2.783l5.209,0.767c0.108,-0.606 0.209,-1.212 0.305,-1.819l-5.176,-0.969c0.146,-0.938 0.279,-1.875 0.397,-2.812l5.242,0.501c0.075,-0.609 0.145,-1.216 0.209,-1.822l-5.218,-0.704c0.099,-0.945 0.183,-1.891 0.253,-2.834l5.261,0.231c0.044,-0.609 0.081,-1.216 0.113,-1.824l-5.247,-0.433c0.049,-0.951 0.086,-1.9 0.107,-2.848l5.266,-0.041c0.013,-0.608 0.018,-1.216 0.019,-1.822l-5.263,-0.162c0.001,-0.953 -0.012,-1.903 -0.039,-2.851l5.257,-0.314c-0.018,-0.607 -0.046,-1.213 -0.077,-1.818l-5.264,0.111c-0.05,-0.951 -0.109,-1.9 -0.187,-2.846l5.236,-0.586c-0.051,-0.605 -0.11,-1.209 -0.173,-1.812l-5.251,0.385c-0.098,-0.947 -0.206,-1.892 -0.332,-2.833l5.197,-0.857c-0.081,-0.602 -0.174,-1.202 -0.266,-1.801l-5.225,0.657c-0.147,-0.941 -0.305,-1.878 -0.48,-2.811l5.143,-1.125c-0.113,-0.598 -0.231,-1.194 -0.355,-1.788l-5.183,0.926c-0.195,-0.931 -0.407,-1.856 -0.63,-2.779l5.079,-1.39c-0.144,-0.591 -0.287,-1.183 -0.442,-1.77l-5.132,1.193c-0.243,-0.919 -0.503,-1.831 -0.773,-2.741l5,-1.65c-0.174,-0.584 -0.35,-1.167 -0.535,-1.747l-5.062,1.456c-0.29,-0.904 -0.596,-1.802 -0.912,-2.696l4.909,-1.906c-0.205,-0.575 -0.413,-1.148 -0.628,-1.719l-4.979,1.715c-0.336,-0.888 -0.685,-1.769 -1.048,-2.645l4.806,-2.155c-0.234,-0.565 -0.474,-1.127 -0.718,-1.688l-4.885,1.969c-0.38,-0.868 -0.773,-1.731 -1.178,-2.588l4.688,-2.399c-0.264,-0.552 -0.533,-1.101 -0.807,-1.648l-4.776,2.215c-0.424,-0.847 -0.859,-1.689 -1.308,-2.523l4.56,-2.637c-0.291,-0.538 -0.591,-1.071 -0.892,-1.605l-4.656,2.457c-0.467,-0.824 -0.943,-1.643 -1.435,-2.453l4.417,-2.866c-0.319,-0.522 -0.643,-1.042 -0.972,-1.559l-4.524,2.692c-0.508,-0.799 -1.03,-1.59 -1.561,-2.373l4.263,-3.087c-0.345,-0.506 -0.69,-1.012 -1.045,-1.511l-4.382,2.921c-0.549,-0.772 -1.112,-1.533 -1.684,-2.288l4.1,-3.303c-0.369,-0.487 -0.742,-0.973 -1.121,-1.454l-4.227,3.142c-0.587,-0.743 -1.188,-1.476 -1.798,-2.201l3.926,-3.509c-0.394,-0.467 -0.791,-0.931 -1.194,-1.391l-4.06,3.353c-0.626,-0.711 -1.262,-1.414 -1.908,-2.107l3.741,-3.706c-0.416,-0.446 -0.838,-0.888 -1.264,-1.326l-3.882,3.558c-0.661,-0.68 -1.331,-1.35 -2.014,-2.01l3.547,-3.893c-0.439,-0.424 -0.884,-0.841 -1.331,-1.256l-3.693,3.752c-0.696,-0.645 -1.4,-1.281 -2.116,-1.906l3.343,-4.072c-0.459,-0.399 -0.926,-0.791 -1.392,-1.182l-3.496,3.938c-0.728,-0.609 -1.463,-1.21 -2.211,-1.797l3.126,-4.237c-0.478,-0.375 -0.963,-0.743 -1.449,-1.109l-3.286,4.114c-0.76,-0.57 -1.527,-1.129 -2.306,-1.677l2.903,-4.394c-0.497,-0.349 -0.996,-0.695 -1.5,-1.035l-3.069,4.278c-0.787,-0.529 -1.587,-1.045 -2.392,-1.552l2.67,-4.538c-0.514,-0.322 -1.028,-0.645 -1.548,-0.958l-2.845,4.434c-0.813,-0.488 -1.639,-0.962 -2.47,-1.427l2.432,-4.671c-0.53,-0.295 -1.06,-0.589 -1.597,-0.875l-2.61,4.576c-0.838,-0.445 -1.686,-0.877 -2.541,-1.298l2.187,-4.791c-0.545,-0.267 -1.09,-0.532 -1.641,-0.79l-2.369,4.703c-0.86,-0.4 -1.727,-0.788 -2.603,-1.164l1.935,-4.898c-0.558,-0.239 -1.118,-0.474 -1.683,-0.704l-2.122,4.82c-0.878,-0.356 -1.764,-0.698 -2.655,-1.029l1.679,-4.991c-0.572,-0.21 -1.147,-0.417 -1.724,-0.619l-1.871,4.923c-0.893,-0.308 -1.793,-0.605 -2.7,-0.889l1.421,-5.071c-0.585,-0.181 -1.171,-0.358 -1.761,-0.531l-1.616,5.012c-0.906,-0.262 -1.818,-0.512 -2.736,-0.749l1.16,-5.136c-0.597,-0.153 -1.195,-0.3 -1.796,-0.442l-1.36,5.086c-0.459,-0.108 -0.917,-0.22 -1.379,-0.321c-0.462,-0.102 -0.924,-0.192 -1.386,-0.287l0.898,-5.188c-0.605,-0.123 -1.21,-0.24 -1.816,-0.351l-1.101,5.149c-0.933,-0.17 -1.866,-0.326 -2.798,-0.468l0.634,-5.228c-0.607,-0.091 -1.214,-0.176 -1.82,-0.256l-0.837,5.199c-0.942,-0.123 -1.884,-0.231 -2.825,-0.326l0.367,-5.253c-0.609,-0.06 -1.217,-0.113 -1.824,-0.162l-0.569,5.235c-0.948,-0.074 -1.895,-0.134 -2.841,-0.18l0.094,-5.265c-0.608,-0.028 -1.215,-0.049 -1.823,-0.067l-0.297,5.258c-0.953,-0.025 -1.903,-0.037 -2.851,-0.034l-0.178,-5.264c-0.608,0.003 -1.214,0.015 -1.821,0.029l-0.025,5.266c-0.952,0.024 -1.902,0.06 -2.849,0.113l-0.45,-5.249c-0.607,0.035 -1.212,0.08 -1.816,0.125l0.248,5.26c-0.95,0.073 -1.897,0.158 -2.84,0.259l-0.722,-5.218c-0.604,0.066 -1.206,0.143 -1.807,0.22l0.521,5.24c-0.944,0.122 -1.886,0.254 -2.823,0.405l-0.991,-5.171c-0.6,0.097 -1.198,0.202 -1.795,0.311l0.792,5.205c-0.936,0.171 -1.869,0.356 -2.797,0.556l-1.257,-5.113c-0.595,0.128 -1.188,0.259 -1.78,0.398l1.06,5.158c-0.925,0.219 -1.844,0.456 -2.761,0.704l-1.52,-5.042c-0.588,0.159 -1.176,0.32 -1.76,0.489l1.326,5.099c-0.912,0.266 -1.818,0.549 -2.72,0.843l-1.778,-4.957c-0.58,0.19 -1.159,0.382 -1.734,0.582l1.586,5.022c-0.896,0.313 -1.787,0.64 -2.671,0.98l-2.032,-4.858c-0.57,0.219 -1.138,0.443 -1.703,0.673l1.842,4.933c-0.879,0.359 -1.751,0.73 -2.617,1.113l-2.279,-4.747c-0.558,0.248 -1.114,0.503 -1.668,0.762l2.093,4.832c-0.858,0.403 -1.711,0.816 -2.555,1.243l-2.52,-4.625c-0.546,0.277 -1.087,0.563 -1.627,0.849l2.336,4.718c-0.835,0.446 -1.667,0.901 -2.489,1.371l-2.752,-4.49c-0.531,0.305 -1.056,0.619 -1.582,0.934l2.575,4.591c-0.812,0.487 -1.617,0.986 -2.414,1.498l-2.977,-4.341c-0.515,0.332 -1.027,0.667 -1.536,1.009l2.806,4.452c-0.785,0.529 -1.56,1.074 -2.33,1.626l-3.195,-4.184c-0.498,0.358 -0.993,0.717 -1.484,1.083l3.033,4.306c-0.758,0.569 -1.505,1.151 -2.246,1.742l-3.406,-4.014c-0.478,0.382 -0.953,0.766 -1.424,1.158l3.249,4.145c-0.727,0.606 -1.445,1.225 -2.155,1.853l-3.608,-3.835c-0.457,0.406 -0.91,0.816 -1.36,1.23l3.458,3.972c-0.696,0.644 -1.383,1.298 -2.061,1.962l-3.799,-3.645c-0.436,0.427 -0.865,0.861 -1.292,1.297l3.656,3.789c-0.662,0.679 -1.316,1.366 -1.958,2.066l-3.985,-3.446c-0.411,0.449 -0.815,0.905 -1.219,1.362l3.846,3.596c-0.626,0.712 -1.246,1.431 -1.852,2.163l-4.157,-3.236c-0.386,0.469 -0.766,0.946 -1.144,1.422l4.027,3.392c-0.589,0.744 -1.17,1.496 -1.738,2.26l-4.317,-3.016c-0.361,0.488 -0.718,0.979 -1.071,1.474l4.197,3.179c-0.551,0.774 -1.088,1.559 -1.616,2.351l-4.467,-2.788c-0.336,0.505 -0.671,1.012 -0.997,1.524l4.358,2.958c-0.51,0.801 -1.004,1.613 -1.49,2.433l-4.606,-2.552c-0.309,0.521 -0.618,1.044 -0.917,1.572l4.506,2.729c-0.467,0.826 -0.92,1.662 -1.363,2.506l-4.732,-2.31c-0.282,0.537 -0.561,1.076 -0.833,1.619l4.642,2.491c-0.424,0.849 -0.834,1.707 -1.233,2.572l-4.845,-2.061c-0.254,0.551 -0.504,1.105 -0.748,1.662l4.763,2.247c-0.378,0.869 -0.742,1.745 -1.096,2.63l-4.947,-1.808c-0.225,0.565 -0.446,1.132 -0.661,1.703l4.873,1.998c-0.333,0.886 -0.652,1.779 -0.96,2.679l-5.032,-1.551c-0.196,0.578 -0.388,1.159 -0.575,1.743l4.969,1.744c-0.286,0.9 -0.559,1.806 -0.819,2.719l-5.105,-1.29c-0.168,0.589 -0.329,1.183 -0.487,1.778l5.051,1.488c-0.239,0.911 -0.465,1.828 -0.678,2.751l-5.164,-1.03c-0.069,0.301 -0.144,0.6 -0.21,0.902c-0.067,0.303 -0.124,0.606 -0.188,0.908l5.12,1.231c-0.194,0.928 -0.373,1.855 -0.539,2.782l-5.209,-0.767c-0.107,0.607 -0.208,1.213 -0.304,1.819l5.176,0.97c-0.147,0.937 -0.279,1.875 -0.397,2.812l-5.243,-0.501c-0.075,0.608 -0.144,1.215 -0.209,1.822l5.219,0.704c-0.099,0.945 -0.183,1.89 -0.252,2.834l-5.262,-0.232c-0.044,0.609 -0.082,1.217 -0.114,1.824l5.248,0.434c-0.049,0.951 -0.086,1.899 -0.107,2.847l-5.267,0.042c-0.012,0.608 -0.017,1.216 -0.018,1.822l5.263,0.161c-0,0.953 0.011,1.904 0.04,2.852l-5.258,0.314c0.018,0.607 0.046,1.213 0.077,1.818l5.264,-0.111c0.049,0.95 0.109,1.9 0.187,2.845l-5.236,0.587c0.05,0.605 0.11,1.209 0.173,1.812l5.251,-0.385c0.098,0.946 0.206,1.892 0.332,2.833l-5.197,0.856c0.082,0.602 0.174,1.202 0.266,1.802l5.225,-0.657c0.146,0.94 0.305,1.878 0.48,2.811l-5.143,1.125c0.112,0.597 0.231,1.193 0.355,1.788l5.182,-0.927c0.196,0.931 0.408,1.857 0.631,2.78l-5.079,1.389c0.144,0.592 0.288,1.183 0.443,1.771l5.13,-1.193c0.243,0.918 0.504,1.831 0.774,2.74l-5.001,1.65c0.175,0.585 0.351,1.168 0.536,1.748l5.063,-1.457c0.289,0.905 0.594,1.803 0.911,2.697l-4.909,1.906c0.205,0.575 0.413,1.148 0.628,1.719l4.979,-1.715c0.336,0.887 0.685,1.769 1.047,2.645l-4.805,2.156c0.235,0.564 0.474,1.126 0.719,1.686l4.884,-1.968c0.38,0.868 0.772,1.731 1.179,2.587l-4.688,2.399c0.262,0.552 0.532,1.102 0.806,1.649l4.776,-2.216c0.424,0.848 0.858,1.69 1.308,2.523l-4.56,2.637c0.291,0.539 0.591,1.072 0.892,1.606l4.656,-2.457c0.467,0.824 0.943,1.643 1.434,2.453l-4.416,2.865c0.318,0.522 0.644,1.042 0.972,1.56l4.523,-2.692c0.509,0.799 1.03,1.589 1.563,2.373l-4.265,3.087c0.346,0.506 0.691,1.011 1.045,1.511l4.382,-2.921c0.549,0.772 1.113,1.533 1.685,2.288l-4.101,3.303c0.37,0.487 0.743,0.973 1.121,1.454l4.227,-3.142c0.588,0.743 1.189,1.475 1.799,2.201l-3.926,3.508c0.393,0.467 0.791,0.932 1.194,1.392l4.06,-3.354c0.625,0.712 1.261,1.415 1.909,2.109l-3.743,3.704c0.418,0.447 0.839,0.888 1.265,1.326l3.882,-3.557c0.661,0.679 1.332,1.349 2.014,2.01l-3.547,3.893c0.439,0.423 0.883,0.841 1.33,1.256l3.694,-3.752c0.696,0.644 1.399,1.281 2.115,1.906l-3.342,4.072c0.459,0.399 0.925,0.791 1.392,1.182l3.496,-3.938c0.728,0.608 1.463,1.21 2.211,1.797l-3.126,4.237c0.478,0.374 0.962,0.742 1.448,1.108l3.287,-4.114c0.759,0.571 1.527,1.13 2.306,1.678l-2.902,4.393c0.496,0.349 0.995,0.695 1.498,1.035l3.069,-4.277c0.788,0.529 1.588,1.044 2.394,1.552l-2.671,4.538c0.513,0.322 1.028,0.644 1.547,0.957l2.845,-4.434c0.815,0.489 1.64,0.963 2.471,1.428l-2.432,4.67c0.53,0.295 1.061,0.589 1.596,0.876l2.611,-4.576c0.838,0.445 1.686,0.876 2.54,1.298l-2.186,4.79c0.545,0.268 1.09,0.533 1.641,0.791l2.37,-4.704c0.859,0.401 1.727,0.788 2.601,1.165l-1.935,4.897c0.559,0.24 1.12,0.476 1.684,0.705l2.122,-4.82c0.878,0.355 1.763,0.698 2.656,1.028l-1.679,4.991c0.571,0.211 1.145,0.417 1.723,0.619l1.871,-4.923c0.893,0.309 1.793,0.605 2.7,0.89l-1.421,5.07c0.585,0.182 1.171,0.359 1.761,0.531l1.616,-5.012c0.906,0.263 1.818,0.512 2.736,0.749l-1.16,5.137c0.596,0.153 1.195,0.299 1.796,0.442l1.36,-5.087c0.46,0.108 0.916,0.22 1.378,0.321c0.463,0.102 0.925,0.192 1.387,0.287l-0.898,5.189c0.605,0.122 1.21,0.24 1.816,0.351l1.101,-5.149c0.933,0.17 1.865,0.326 2.798,0.467l-0.635,5.228c0.608,0.091 1.215,0.177 1.821,0.257l0.837,-5.199c0.943,0.122 1.884,0.231 2.825,0.325l-0.367,5.254c0.609,0.059 1.217,0.113 1.824,0.161l0.569,-5.235c0.948,0.074 1.896,0.135 2.841,0.18l-0.095,5.265c0.609,0.029 1.216,0.05 1.824,0.068l0.297,-5.258c0.952,0.024 1.903,0.037 2.851,0.033l0.178,5.265c0.608,-0.004 1.214,-0.015 1.821,-0.03l0.024,-5.266c0.952,-0.024 1.903,-0.06 2.85,-0.112l0.451,5.248c0.606,-0.034 1.211,-0.078 1.815,-0.124l-0.249,-5.261c0.95,-0.073 1.898,-0.157 2.841,-0.259l0.722,5.219c0.604,-0.066 1.206,-0.143 1.807,-0.22l-0.521,-5.24c0.944,-0.122 1.886,-0.255 2.824,-0.405l0.99,5.171c0.6,-0.098 1.198,-0.203 1.795,-0.311l-0.792,-5.205c0.936,-0.172 1.869,-0.357 2.797,-0.556l1.257,5.113c0.595,-0.128 1.189,-0.259 1.78,-0.399l-1.061,-5.157c0.926,-0.219 1.845,-0.457 2.762,-0.704l1.52,5.041c0.588,-0.159 1.175,-0.319 1.76,-0.488l-1.326,-5.099c0.912,-0.267 1.818,-0.55 2.72,-0.843l1.779,4.956c0.579,-0.189 1.158,-0.381 1.734,-0.582l-1.587,-5.021c0.897,-0.314 1.786,-0.641 2.671,-0.98l2.032,4.858c0.569,-0.22 1.138,-0.444 1.703,-0.674l-1.842,-4.932c0.879,-0.359 1.751,-0.729 2.617,-1.114l2.278,4.748c0.559,-0.249 1.115,-0.503 1.669,-0.762l-2.094,-4.832c0.859,-0.403 1.712,-0.816 2.557,-1.244l2.519,4.625c0.545,-0.277 1.087,-0.562 1.627,-0.849l-2.336,-4.718c0.835,-0.446 1.666,-0.9 2.489,-1.371l2.752,4.491c0.531,-0.305 1.057,-0.619 1.582,-0.934l-2.575,-4.591c0.811,-0.488 1.617,-0.986 2.414,-1.499l2.977,4.341c0.514,-0.331 1.028,-0.666 1.535,-1.008l-2.806,-4.453c0.785,-0.529 1.561,-1.073 2.331,-1.625l3.195,4.184c0.497,-0.359 0.993,-0.717 1.484,-1.083l-3.032,-4.307c0.757,-0.568 1.504,-1.151 2.245,-1.741l3.406,4.014c0.477,-0.383 0.953,-0.767 1.423,-1.158l-3.248,-4.144c0.727,-0.608 1.445,-1.226 2.155,-1.855l3.608,3.836c0.457,-0.406 0.91,-0.816 1.36,-1.231l-3.458,-3.972c0.696,-0.643 1.383,-1.297 2.06,-1.962l3.801,3.646c0.434,-0.428 0.864,-0.862 1.291,-1.298l-3.656,-3.789c0.663,-0.679 1.316,-1.366 1.958,-2.065l3.985,3.445c0.411,-0.448 0.815,-0.904 1.219,-1.361l-3.847,-3.596c0.627,-0.712 1.247,-1.431 1.852,-2.164l4.158,3.236c0.386,-0.468 0.765,-0.945 1.144,-1.422l-4.027,-3.392c0.589,-0.744 1.171,-1.496 1.738,-2.259l4.317,3.016c0.361,-0.488 0.718,-0.98 1.071,-1.475l-4.196,-3.179c0.55,-0.773 1.087,-1.558 1.615,-2.35l4.467,2.788c0.336,-0.506 0.671,-1.012 0.997,-1.524l-4.358,-2.958c0.51,-0.801 1.004,-1.614 1.49,-2.433l4.606,2.552c0.31,-0.521 0.617,-1.044 0.917,-1.572l-4.506,-2.729c0.467,-0.826 0.919,-1.663 1.362,-2.506l4.733,2.31c0.282,-0.538 0.562,-1.076 0.833,-1.619l-4.642,-2.491c0.424,-0.849 0.834,-1.707 1.233,-2.572l4.845,2.061c0.254,-0.551 0.504,-1.105 0.748,-1.663l-4.764,-2.246c0.379,-0.869 0.744,-1.746 1.097,-2.63l4.947,1.808c0.224,-0.566 0.446,-1.133 0.661,-1.704l-4.873,-1.997c0.332,-0.886 0.652,-1.779 0.959,-2.679l5.032,1.55c0.197,-0.578 0.389,-1.158 0.575,-1.742l-4.968,-1.744c0.286,-0.9 0.559,-1.807 0.819,-2.72l5.105,1.291c0.167,-0.59 0.329,-1.183 0.486,-1.779l-5.05,-1.488c0.239,-0.91 0.465,-1.827 0.678,-2.75l5.164,1.03Z" style="fill:#01b901;fill-rule:nonzero;"/><path id="巨大歯車" d="M362.687,51.092l-162.65,-263.655c0.984,-0.895 1.941,-1.836 2.824,-2.878c5.078,-5.984 7.438,-13.349 7.268,-20.624l299.493,-72.847c7.275,32.177 9.954,65.966 7.334,100.578c-8.33,110.025 -68.259,203.789 -154.269,259.426m-209.694,53.307c-72.236,-5.469 -137.456,-33.189 -189.49,-75.916l200.514,-236.195c0.375,0.204 0.754,0.397 1.14,0.586c0.169,0.085 0.343,0.154 0.515,0.234c0.305,0.144 0.61,0.287 0.921,0.422c0.13,0.055 0.251,0.12 0.38,0.174c0.011,0.004 0.025,0.008 0.036,0.011c0.276,0.113 0.559,0.218 0.839,0.323c0.238,0.091 0.484,0.163 0.727,0.245c0.389,0.139 0.775,0.28 1.173,0.399c0.074,0.025 0.147,0.053 0.224,0.076c0.218,0.064 0.44,0.12 0.659,0.181c0.375,0.101 0.758,0.175 1.137,0.262c0.134,0.03 0.269,0.062 0.403,0.092c0.291,0.064 0.581,0.147 0.876,0.203c0.154,0.029 0.311,0.052 0.472,0.078c0.446,0.075 0.898,0.118 1.349,0.175c0.429,0.054 0.86,0.123 1.29,0.159c0.064,0.004 0.127,0.018 0.188,0.022c0.067,0.005 0.126,0.001 0.19,0.006c0.43,0.03 0.866,0.027 1.298,0.037c0.455,0.012 0.911,0.038 1.367,0.031c0.156,-0.002 0.315,-0.001 0.472,-0.006c0.3,-0.011 0.599,-0.05 0.896,-0.069c0.141,-0.009 0.276,-0.021 0.413,-0.03c0.391,-0.03 0.78,-0.045 1.163,-0.088c0.226,-0.028 0.454,-0.05 0.682,-0.08c0.076,-0.011 0.153,-0.028 0.232,-0.041c0.412,-0.058 0.818,-0.142 1.226,-0.217c0.249,-0.048 0.501,-0.082 0.748,-0.134c0.292,-0.061 0.587,-0.123 0.88,-0.193c0.011,-0.002 0.023,-0.004 0.034,-0.006c0.136,-0.031 0.263,-0.08 0.397,-0.115c0.33,-0.084 0.656,-0.182 0.984,-0.277c0.18,-0.054 0.36,-0.099 0.543,-0.155c0.589,-0.184 1.167,-0.397 1.742,-0.616l162.628,263.615c-57.975,34.596 -126.812,52.291 -199.248,46.807m-312.733,-363.963c2.621,-34.611 10.359,-67.612 22.395,-98.327l285.766,117.372c-0.114,0.656 -0.2,1.314 -0.267,1.977c-0.056,0.437 -0.103,0.875 -0.139,1.313c-0.004,0.056 -0.016,0.111 -0.021,0.166c-0.004,0.061 0.002,0.121 -0.002,0.184c-0.013,0.162 -0.017,0.326 -0.026,0.493c-0.038,0.712 -0.052,1.423 -0.039,2.136c0,0.176 0.001,0.352 0.004,0.529c0.002,0.084 0.013,0.171 0.014,0.258c0.034,0.698 0.088,1.392 0.164,2.082c0.031,0.287 0.06,0.574 0.097,0.862c0.095,0.66 0.216,1.312 0.351,1.965c0.061,0.3 0.108,0.606 0.183,0.907c0.188,0.788 0.409,1.567 0.658,2.338c0.088,0.269 0.18,0.533 0.275,0.797c0.034,0.103 0.082,0.202 0.116,0.308c0.003,-0 0.002,0.003 0.002,0.003c0.223,0.603 0.448,1.207 0.705,1.799c0.095,0.219 0.202,0.431 0.303,0.648c0.086,0.188 0.184,0.366 0.274,0.552c0.223,0.449 0.443,0.899 0.689,1.339c0.129,0.242 0.271,0.479 0.412,0.716c0.101,0.175 0.208,0.348 0.315,0.518c0.249,0.41 0.509,0.809 0.778,1.204c0.171,0.253 0.347,0.504 0.527,0.752c0.093,0.127 0.184,0.26 0.278,0.387c0.17,0.225 0.34,0.45 0.516,0.67l-200.455,236.122c-76.91,-67.954 -122.217,-169.845 -113.873,-280.07m357.823,-313.122l-23.226,306.791c-4.23,0.534 -8.42,1.932 -12.287,4.315c-4.061,2.505 -7.3,5.816 -9.713,9.582l-285.492,-117.261c55.212,-127.016 185.252,-211.837 330.718,-203.427m-23.66,323.178c0.192,-0.055 0.381,-0.116 0.574,-0.163c0.068,-0.017 0.131,-0.035 0.199,-0.052c0.188,-0.044 0.377,-0.069 0.567,-0.108c0.278,-0.051 0.553,-0.111 0.835,-0.149c0.046,-0.005 0.091,-0.015 0.136,-0.02c0.026,-0.004 0.054,-0.005 0.082,-0.008c0.983,-0.115 1.988,-0.148 3.013,-0.071c1.025,0.078 2.019,0.262 2.971,0.524c0.025,0.008 0.053,0.012 0.08,0.02c0.044,0.012 0.087,0.029 0.128,0.041c0.273,0.079 0.54,0.18 0.806,0.273c0.182,0.067 0.363,0.119 0.544,0.192c0.062,0.027 0.122,0.054 0.187,0.081c0.184,0.075 0.364,0.164 0.545,0.248c0.222,0.101 0.446,0.199 0.661,0.31c0.059,0.032 0.113,0.061 0.172,0.094c0.206,0.11 0.407,0.232 0.607,0.35c0.177,0.106 0.353,0.206 0.521,0.316c0.037,0.023 0.075,0.048 0.109,0.073c0.239,0.157 0.472,0.331 0.702,0.502c0.14,0.103 0.289,0.207 0.423,0.317c0.003,0.003 0.008,0.007 0.013,0.01c0.253,0.203 0.494,0.42 0.729,0.636c0.125,0.115 0.256,0.226 0.376,0.344c0.223,0.218 0.435,0.449 0.644,0.68c0.129,0.141 0.261,0.279 0.381,0.423c0.177,0.209 0.339,0.43 0.507,0.65c0.136,0.186 0.282,0.37 0.412,0.562c0.126,0.182 0.24,0.375 0.357,0.563c0.152,0.243 0.304,0.486 0.442,0.737c0.081,0.146 0.156,0.3 0.231,0.451c0.15,0.301 0.3,0.603 0.433,0.915c0.048,0.112 0.092,0.23 0.136,0.345c0.141,0.352 0.271,0.705 0.386,1.066c0.029,0.091 0.053,0.188 0.079,0.285c0.113,0.38 0.216,0.759 0.298,1.148c0.023,0.105 0.035,0.21 0.055,0.314c0.072,0.38 0.138,0.759 0.181,1.145c0.015,0.138 0.021,0.278 0.03,0.419c0.032,0.354 0.058,0.708 0.064,1.069c0.004,0.173 -0.009,0.348 -0.011,0.524c-0.006,0.223 -0.012,0.446 -0.026,0.668c-0.488,4.569 -2.993,8.874 -7.206,11.473c-2.687,1.657 -5.686,2.385 -8.619,2.281c-0.091,-0.007 -0.184,-0.009 -0.272,-0.018c-0.089,-0.004 -0.18,-0.017 -0.272,-0.024c-2.916,-0.338 -5.771,-1.509 -8.177,-3.551c-6.477,-5.499 -7.271,-15.203 -1.772,-21.68c0.503,-0.593 1.054,-1.121 1.622,-1.62c0.137,-0.104 0.265,-0.215 0.407,-0.316c0.136,-0.098 0.282,-0.188 0.423,-0.283c0.271,-0.178 0.539,-0.356 0.819,-0.519c0.003,-0.003 0.009,-0.005 0.012,-0.008c0.154,-0.089 0.311,-0.169 0.468,-0.249c0.253,-0.135 0.507,-0.272 0.77,-0.392c0.035,-0.019 0.076,-0.039 0.116,-0.055c0.182,-0.084 0.375,-0.156 0.565,-0.234c0.216,-0.087 0.432,-0.177 0.656,-0.255c0.058,-0.023 0.118,-0.044 0.179,-0.067c0.229,-0.078 0.465,-0.141 0.702,-0.207m332.257,-71.352l-299.294,72.798c-1.816,-4.009 -4.492,-7.7 -8.069,-10.736c-3.655,-3.103 -7.831,-5.168 -12.181,-6.293l23.216,-306.666c145.076,13.586 260.864,117.017 296.328,250.897m45.553,118.679c0.098,-1.154 0.219,-2.301 0.306,-3.459c0.088,-1.158 0.142,-2.311 0.218,-3.47l-19.655,-1.876c0.23,-3.546 0.408,-7.086 0.533,-10.612l19.747,0.104c0.077,-2.307 0.134,-4.61 0.171,-6.911l-19.728,-0.874c0.052,-3.563 0.05,-7.113 -0.006,-10.65l19.726,-0.903c-0.039,-2.296 -0.1,-4.588 -0.184,-6.877l-19.743,0.14c-0.135,-3.566 -0.319,-7.119 -0.556,-10.659l19.657,-1.914c-0.16,-2.283 -0.339,-4.556 -0.536,-6.83l-19.717,1.155c-0.315,-3.557 -0.678,-7.098 -1.098,-10.627l19.533,-2.926c-0.275,-2.266 -0.576,-4.524 -0.892,-6.779l-19.629,2.173c-0.497,-3.538 -1.041,-7.062 -1.647,-10.565l19.358,-3.937c-0.391,-2.244 -0.815,-4.477 -1.243,-6.711l-19.488,3.187c-0.682,-3.504 -1.406,-6.997 -2.191,-10.467l19.129,-4.934c-0.505,-2.222 -1.047,-4.431 -1.593,-6.634l-19.296,4.192c-0.863,-3.464 -1.761,-6.917 -2.725,-10.342l18.846,-5.919c-0.622,-2.192 -1.278,-4.37 -1.937,-6.548l-19.05,5.188c-1.041,-3.413 -2.127,-6.811 -3.266,-10.182l18.506,-6.886c-0.736,-2.159 -1.489,-4.308 -2.26,-6.45l-18.756,6.169c-1.215,-3.354 -2.488,-6.682 -3.802,-9.991l18.125,-7.834c-0.845,-2.117 -1.693,-4.236 -2.575,-6.339l-18.421,7.132c-1.386,-3.283 -2.835,-6.535 -4.316,-9.767l17.695,-8.76c-0.954,-2.078 -1.918,-4.151 -2.91,-6.206l-18.026,8.073c-1.553,-3.207 -3.159,-6.378 -4.803,-9.53l17.219,-9.662c-1.059,-2.027 -2.138,-4.047 -3.234,-6.052l-17.587,8.986c-1.711,-3.115 -3.474,-6.204 -5.276,-9.267l16.704,-10.533c-1.169,-1.974 -2.352,-3.935 -3.554,-5.884l-17.098,9.878c-1.872,-3.024 -3.782,-6.02 -5.739,-8.984l16.143,-11.377c-1.269,-1.912 -2.561,-3.808 -3.862,-5.697l-16.566,10.742c-2.024,-2.924 -4.076,-5.822 -6.183,-8.683l15.539,-12.188c-1.366,-1.846 -2.761,-3.67 -4.157,-5.49l-15.995,11.573c-2.166,-2.815 -4.363,-5.607 -6.613,-8.355l14.886,-12.961c-1.458,-1.775 -2.937,-3.532 -4.424,-5.279l-15.38,12.377c-2.313,-2.7 -4.664,-5.359 -7.051,-7.989l14.204,-13.708c-1.548,-1.696 -3.095,-3.391 -4.672,-5.06l-14.735,13.154c-2.442,-2.579 -4.937,-5.108 -7.46,-7.612l13.487,-14.419c-1.629,-1.612 -3.267,-3.222 -4.926,-4.808l-14.039,13.891c-2.577,-2.449 -5.194,-4.854 -7.838,-7.227l12.731,-15.09c-1.708,-1.529 -3.431,-3.045 -5.169,-4.542l-13.308,14.592c-2.696,-2.313 -5.429,-4.59 -8.195,-6.824l11.944,-15.726c-1.785,-1.437 -3.585,-2.855 -5.392,-4.257l-12.542,15.25c-2.813,-2.171 -5.657,-4.31 -8.537,-6.4l11.117,-16.324c-1.851,-1.339 -3.72,-2.656 -5.599,-3.963l-11.737,15.878c-2.922,-2.028 -5.868,-4.022 -8.858,-5.963l10.266,-16.878c-1.914,-1.24 -3.851,-2.45 -5.793,-3.656l-10.901,16.461c-3.026,-1.874 -6.07,-3.722 -9.158,-5.509l9.373,-17.375c-1.972,-1.138 -3.963,-2.25 -5.958,-3.353l-10.037,17.004c-3.119,-1.719 -6.268,-3.391 -9.447,-5.017l8.465,-17.838c-2.028,-1.033 -4.062,-2.056 -6.109,-3.054l-9.143,17.499c-3.206,-1.553 -6.445,-3.044 -9.706,-4.503l7.527,-18.255c-2.075,-0.925 -4.153,-1.854 -6.25,-2.741l-8.228,17.962c-3.277,-1.385 -6.593,-2.711 -9.923,-4l6.569,-18.621c-2.122,-0.817 -4.245,-1.628 -6.387,-2.408l-7.281,18.361c-3.349,-1.212 -6.722,-2.367 -10.115,-3.481l5.593,-18.938c-2.162,-0.708 -4.33,-1.403 -6.511,-2.071l-6.321,18.713c-3.399,-1.037 -6.827,-2.017 -10.27,-2.954l4.607,-19.202c-2.2,-0.597 -4.408,-1.178 -6.625,-1.734l-5.341,19.013c-3.446,-0.858 -6.913,-1.66 -10.403,-2.418l3.609,-19.415c-2.234,-0.482 -4.472,-0.945 -6.723,-1.389l-4.358,19.263c-3.476,-0.679 -6.976,-1.307 -10.494,-1.881l2.608,-19.574c-2.265,-0.367 -4.538,-0.718 -6.817,-1.044l-3.364,19.458c-3.498,-0.499 -7.02,-0.944 -10.554,-1.34l1.604,-19.682c-2.293,-0.252 -4.591,-0.484 -6.899,-0.698l-2.328,19.238l-10.619,-0.804l0.592,-19.369c-2.314,-0.136 -4.623,-0.253 -6.929,-0.349l-1.376,19.699c-3.554,-0.141 -7.1,-0.228 -10.636,-0.264l-0.396,-19.743c-2.303,-0.018 -4.599,-0.016 -6.897,0.006l-0.366,19.744c-3.567,0.04 -7.118,0.131 -10.66,0.279l-1.408,-19.697c-2.287,0.098 -4.572,0.218 -6.853,0.359l0.645,19.737c-3.561,0.224 -7.11,0.498 -10.646,0.828l-2.418,-19.604c-2.275,0.216 -4.545,0.458 -6.807,0.717l1.663,19.677c-3.547,0.408 -7.084,0.86 -10.603,1.373l-3.429,-19.45c-2.257,0.331 -4.505,0.692 -6.748,1.067l2.683,19.564c-3.524,0.591 -7.033,1.225 -10.521,1.919l-4.439,-19.251c-2.232,0.448 -4.453,0.931 -6.671,1.419l3.688,19.398c-3.483,0.773 -6.958,1.585 -10.409,2.46l-5.427,-18.998c-2.208,0.564 -4.401,1.166 -6.592,1.771l4.693,19.178c-3.441,0.952 -6.867,1.938 -10.27,2.991l-6.402,-18.676c-2.173,0.676 -4.339,1.383 -6.499,2.1l5.68,18.909c-3.387,1.128 -6.75,2.307 -10.091,3.534l-7.364,-18.321c-2.137,0.79 -4.273,1.59 -6.394,2.418l6.65,18.588c-3.321,1.302 -6.606,2.67 -9.879,4.068l-8.3,-17.915c-2.101,0.899 -4.195,1.802 -6.277,2.742l7.608,18.228c-3.245,1.473 -6.461,3 -9.654,4.562l-9.214,-17.464c-2.053,1.009 -4.1,2.028 -6.131,3.075l8.533,17.812c-3.162,1.632 -6.295,3.316 -9.403,5.042l-10.1,-16.967c-2,1.113 -3.991,2.245 -5.972,3.396l9.44,17.345c-3.074,1.792 -6.117,3.629 -9.131,5.512l-10.957,-16.429c-1.944,1.216 -3.875,2.455 -5.794,3.709l10.314,16.838c-2.974,1.945 -5.923,3.929 -8.834,5.962l-11.79,-15.846c-1.879,1.315 -3.738,2.661 -5.594,4.012l11.16,16.285c-2.871,2.095 -5.716,4.22 -8.52,6.399l-12.584,-15.223c-1.811,1.413 -3.599,2.856 -5.381,4.299l11.978,15.691c-2.758,2.24 -5.483,4.514 -8.176,6.835l-13.338,-14.55c-1.737,1.505 -3.463,3.017 -5.171,4.552l12.764,15.057c-2.638,2.376 -5.23,4.805 -7.795,7.262l-14.068,-13.852c-1.656,1.589 -3.31,3.182 -4.938,4.802l13.526,14.394c-2.513,2.508 -4.98,5.064 -7.422,7.65l-14.76,-13.114c-1.57,1.669 -3.133,3.349 -4.675,5.048l14.245,13.678c-2.381,2.638 -4.723,5.312 -7.025,8.02l-15.414,-12.342c-1.484,1.748 -2.95,3.509 -4.402,5.284l14.925,12.928c-2.242,2.754 -4.45,5.542 -6.611,8.37l-16.033,-11.537c-1.386,1.82 -2.757,3.654 -4.112,5.498l15.571,12.145c-2.102,2.868 -4.168,5.765 -6.183,8.698l-16.608,-10.695c-1.29,1.883 -2.552,3.787 -3.811,5.697l16.175,11.325c-1.951,2.975 -3.873,5.971 -5.738,9.011l-17.137,-9.827c-1.191,1.943 -2.346,3.911 -3.501,5.883l16.739,10.473c-1.799,3.073 -3.558,6.168 -5.265,9.301l-17.613,-8.922c-1.088,2.002 -2.153,4.016 -3.203,6.039l17.255,9.594c-1.635,3.16 -3.218,6.356 -4.761,9.577l-18.052,-8c-0.982,2.054 -1.959,4.108 -2.903,6.182l17.74,8.688c-1.472,3.244 -2.879,6.522 -4.252,9.82l-18.445,-7.052c-0.873,2.098 -1.742,4.2 -2.576,6.321l18.168,7.758c-1.298,3.314 -2.54,6.659 -3.741,10.023l-18.787,-6.084c-0.763,2.143 -1.517,4.287 -2.239,6.45l18.542,6.803c-1.122,3.375 -2.192,6.777 -3.219,10.199l-19.079,-5.103c-0.648,2.183 -1.286,4.369 -1.896,6.568l18.869,5.833c-0.949,3.425 -1.844,6.874 -2.69,10.343l-19.316,-4.11c-0.537,2.219 -1.06,4.442 -1.558,6.675l19.142,4.851c-0.768,3.461 -1.484,6.948 -2.151,10.451l-19.501,-3.108c-0.424,2.25 -0.83,4.507 -1.216,6.771l19.365,3.859c-0.588,3.492 -1.122,7.004 -1.61,10.531l-19.632,-2.106c-0.31,2.281 -0.6,4.566 -0.871,6.861l19.538,2.864c-0.408,3.508 -0.764,7.031 -1.071,10.572l-19.716,-1.107c-0.099,1.157 -0.217,2.304 -0.305,3.462c-0.087,1.159 -0.144,2.311 -0.22,3.47l19.658,1.873c-0.229,3.547 -0.408,7.086 -0.533,10.615l-19.747,-0.106c-0.077,2.306 -0.134,4.612 -0.172,6.913l19.726,0.874c-0.049,3.56 -0.047,7.11 0.006,10.65l-19.725,0.903c0.041,2.296 0.102,4.589 0.183,6.877l19.749,-0.139c0.129,3.565 0.313,7.118 0.551,10.655l-19.655,1.914c0.157,2.283 0.339,4.559 0.536,6.831l19.714,-1.153c0.315,3.554 0.681,7.098 1.103,10.627l-19.532,2.926c0.272,2.267 0.573,4.524 0.886,6.776l19.629,-2.17c0.501,3.535 1.047,7.059 1.647,10.565l-19.355,3.934c0.389,2.244 0.812,4.48 1.243,6.711l19.488,-3.186c0.679,3.506 1.403,6.999 2.188,10.469l-19.129,4.934c0.505,2.219 1.047,4.428 1.593,6.634l19.296,-4.192c0.863,3.464 1.761,6.914 2.725,10.342l-18.843,5.919c0.619,2.192 1.275,4.37 1.937,6.546l19.051,-5.189c1.043,3.414 2.123,6.811 3.264,10.185l-18.505,6.883c0.733,2.159 1.486,4.311 2.26,6.45l18.756,-6.166c1.212,3.354 2.488,6.68 3.802,9.988l-18.128,7.834c0.848,2.12 1.693,4.239 2.576,6.34l18.421,-7.133c1.388,3.284 2.837,6.535 4.318,9.77l-17.698,8.76c0.958,2.075 1.918,4.148 2.91,6.206l18.029,-8.073c1.55,3.204 3.156,6.378 4.803,9.53l-17.222,9.659c1.062,2.03 2.138,4.047 3.234,6.055l17.587,-8.989c1.714,3.118 3.474,6.207 5.276,9.267l-16.701,10.537c1.166,1.97 2.35,3.931 3.554,5.883l17.096,-9.881c1.871,3.027 3.781,6.023 5.738,8.987l-16.142,11.377c1.268,1.912 2.56,3.808 3.864,5.694l16.563,-10.739c2.025,2.921 4.079,5.819 6.183,8.68l-15.539,12.191c1.366,1.843 2.761,3.67 4.16,5.488l15.992,-11.571c2.167,2.812 4.366,5.604 6.616,8.352l-14.888,12.961c1.457,1.775 2.936,3.532 4.429,5.279l15.374,-12.374c2.313,2.698 4.664,5.359 7.054,7.986l-14.204,13.709c1.545,1.697 3.095,3.393 4.67,5.059l14.735,-13.151c2.444,2.579 4.939,5.105 7.459,7.612l-13.484,14.416c1.629,1.615 3.266,3.225 4.926,4.808l14.039,-13.888c2.574,2.446 5.191,4.851 7.838,7.224l-12.734,15.093c1.711,1.526 3.431,3.042 5.17,4.539l13.307,-14.589c2.696,2.313 5.429,4.587 8.195,6.821l-11.938,15.729c1.779,1.434 3.58,2.852 5.387,4.257l12.544,-15.253c2.81,2.174 5.654,4.31 8.535,6.403l-11.118,16.321c1.851,1.342 3.72,2.656 5.599,3.963l11.737,-15.878c2.922,2.028 5.871,4.022 8.858,5.963l-10.266,16.878c1.917,1.243 3.854,2.451 5.793,3.656l10.904,-16.458c3.026,1.874 6.067,3.719 9.158,5.506l-9.376,17.378c1.972,1.138 3.963,2.247 5.96,3.353l10.036,-17.004c3.118,1.717 6.268,3.388 9.446,5.014l-8.465,17.841c2.028,1.033 4.062,2.056 6.112,3.052l9.14,-17.5c3.206,1.553 6.445,3.044 9.706,4.506l-7.527,18.255c2.075,0.925 4.153,1.851 6.25,2.741l8.228,-17.962c3.28,1.385 6.593,2.709 9.923,3.997l-6.569,18.624c2.123,0.814 4.245,1.628 6.387,2.408l7.284,-18.363c3.346,1.211 6.719,2.369 10.115,3.483l-5.595,18.938c2.161,0.705 4.329,1.403 6.51,2.071l6.321,-18.715c3.402,1.039 6.827,2.019 10.276,2.956l-4.607,19.203c2.197,0.593 4.402,1.174 6.619,1.73l5.342,-19.013c3.448,0.859 6.915,1.663 10.402,2.421l-3.606,19.415c2.231,0.479 4.472,0.945 6.721,1.386l4.357,-19.26c3.479,0.676 6.976,1.304 10.497,1.881l-2.611,19.574c2.268,0.368 4.541,0.716 6.817,1.044l3.364,-19.458c3.501,0.496 7.021,0.942 10.554,1.34l-1.604,19.679c2.293,0.255 4.594,0.487 6.899,0.698l2.372,-19.601c1.765,0.159 3.519,0.334 5.288,0.468c1.772,0.134 3.536,0.225 5.299,0.334l-0.603,19.735c2.313,0.138 4.622,0.255 6.928,0.348l1.377,-19.698c3.553,0.14 7.102,0.23 10.635,0.266l0.396,19.743c2.303,0.018 4.602,0.016 6.897,-0.006l0.369,-19.744c3.564,-0.04 7.116,-0.134 10.657,-0.28l1.408,19.698c2.292,-0.098 4.575,-0.221 6.856,-0.358l-0.648,-19.738c3.562,-0.224 7.11,-0.498 10.646,-0.828l2.421,19.601c2.276,-0.216 4.542,-0.458 6.807,-0.714l-1.663,-19.677c3.547,-0.407 7.081,-0.86 10.6,-1.376l3.429,19.453c2.257,-0.332 4.505,-0.695 6.748,-1.067l-2.678,-19.564c3.522,-0.591 7.028,-1.225 10.519,-1.919l4.436,19.248c2.232,-0.448 4.453,-0.931 6.677,-1.416l-3.693,-19.401c3.485,-0.772 6.957,-1.582 10.408,-2.458l5.428,18.996c2.207,-0.564 4.401,-1.166 6.594,-1.768l-4.695,-19.181c3.44,-0.952 6.869,-1.938 10.27,-2.99l6.404,18.676c2.176,-0.676 4.338,-1.381 6.496,-2.098l-5.677,-18.911c3.384,-1.129 6.747,-2.305 10.088,-3.535l7.364,18.321c2.138,-0.79 4.274,-1.589 6.397,-2.415l-6.65,-18.591c3.319,-1.302 6.606,-2.667 9.879,-4.067l8.3,17.917c2.098,-0.899 4.197,-1.805 6.274,-2.742l-7.605,-18.231c3.245,-1.469 6.458,-2.997 9.654,-4.562l9.211,17.464c2.054,-1.009 4.1,-2.027 6.131,-3.072l-8.533,-17.812c3.163,-1.635 6.295,-3.319 9.403,-5.042l10.1,16.967c2.003,-1.113 3.991,-2.245 5.972,-3.396l-9.437,-17.348c3.071,-1.792 6.115,-3.628 9.128,-5.509l10.962,16.429c1.942,-1.219 3.871,-2.458 5.789,-3.709l-10.311,-16.838c2.971,-1.948 5.92,-3.932 8.834,-5.962l11.788,15.843c1.881,-1.315 3.74,-2.66 5.596,-4.008l-11.162,-16.288c2.87,-2.093 5.718,-4.221 8.52,-6.399l12.584,15.222c1.81,-1.41 3.598,-2.853 5.383,-4.299l-11.978,-15.69c2.758,-2.241 5.486,-4.515 8.173,-6.836l13.338,14.55c1.737,-1.502 3.463,-3.017 5.172,-4.552l-12.765,-15.054c2.641,-2.378 5.233,-4.808 7.801,-7.261l14.065,13.848c1.659,-1.589 3.307,-3.182 4.935,-4.801l-13.523,-14.392c2.513,-2.508 4.981,-5.066 7.419,-7.65l14.76,13.114c1.571,-1.672 3.133,-3.349 4.675,-5.051l-14.245,-13.678c2.384,-2.635 4.723,-5.312 7.028,-8.017l15.414,12.339c1.481,-1.745 2.952,-3.505 4.399,-5.281l-14.925,-12.928c2.243,-2.757 4.451,-5.545 6.617,-8.37l16.027,11.534c1.389,-1.816 2.757,-3.654 4.115,-5.498l-15.574,-12.142c2.102,-2.868 4.168,-5.765 6.186,-8.701l16.605,10.697c1.291,-1.885 2.555,-3.789 3.811,-5.697l-16.175,-11.327c1.954,-2.974 3.874,-5.971 5.741,-9.008l17.137,9.827c1.189,-1.946 2.346,-3.914 3.501,-5.882l-16.737,-10.473c1.794,-3.074 3.554,-6.172 5.263,-9.305l17.611,8.922c1.087,-2.001 2.152,-4.013 3.205,-6.036l-17.258,-9.594c1.636,-3.163 3.221,-6.359 4.764,-9.577l18.052,7.998c0.979,-2.052 1.956,-4.109 2.901,-6.183l-17.741,-8.688c1.472,-3.243 2.879,-6.522 4.255,-9.817l18.445,7.049c0.871,-2.098 1.739,-4.2 2.573,-6.321l-18.168,-7.757c1.301,-3.312 2.54,-6.657 3.744,-10.023l18.784,6.086c0.763,-2.143 1.517,-4.29 2.242,-6.453l-18.544,-6.802c1.127,-3.376 2.194,-6.778 3.219,-10.2l19.078,5.103c0.651,-2.179 1.289,-4.368 1.902,-6.565l-18.869,-5.836c0.946,-3.425 1.838,-6.871 2.687,-10.34l19.316,4.107c0.537,-2.216 1.057,-4.439 1.558,-6.672l-19.145,-4.851c0.771,-3.464 1.484,-6.949 2.155,-10.453l19.5,3.107c0.425,-2.25 0.83,-4.506 1.214,-6.771l-19.366,-3.859c0.588,-3.489 1.125,-7.001 1.61,-10.528l19.635,2.103c0.312,-2.277 0.603,-4.565 0.871,-6.858l-19.538,-2.867c0.408,-3.508 0.764,-7.031 1.071,-10.572l19.714,1.107Z" style="fill:#01b901;fill-rule:nonzero;"/></g></g></svg>